
<svg width="22" height="24" viewBox="0 0 22 24" fill="none" xmlns="http://www.w3.org/2000/svg">
<path d="M14.5 20.0005C14.5 21.9335 12.933 23.5005 11 23.5005C9.067 23.5005 7.5 21.9335 7.5 20.0005C7.5 19.7769 7.57687 19.6316 7.64607 19.5417C7.65795 19.5263 7.66973 19.5124 7.68104 19.5H14.319C14.3303 19.5124 14.3421 19.5263 14.3539 19.5417C14.4231 19.6316 14.5 19.7769 14.5 20.0005Z" stroke="#C09B73"/>
<path d="M2.5 8.99956C2.5 4.30517 6.30555 0.5 11 0.5C15.6945 0.5 19.5 4.30517 19.5 8.99955V9.01358V9.0276V9.04163V9.05567V9.0697V9.08373V9.09777V9.11181V9.12586V9.1399V9.15395V9.168V9.18205V9.19611V9.21016V9.22422V9.23828V9.25235V9.26641V9.28048V9.29455V9.30862V9.32269V9.33677V9.35085V9.36493V9.37901V9.39309V9.40717V9.42126V9.43535V9.44944V9.46353V9.47763V9.49172V9.50582V9.51992V9.53402V9.54812V9.56222V9.57633V9.59044V9.60454V9.61866V9.63277V9.64688V9.66099V9.67511V9.68923V9.70335V9.71747V9.73159V9.74571V9.75983V9.77396V9.78809V9.80221V9.81634V9.83047V9.8446V9.85874V9.87287V9.88701V9.90114V9.91528V9.92942V9.94355V9.9577V9.97184V9.98598V10.0001V10.0143V10.0284V10.0426V10.0567V10.0708V10.085V10.0991V10.1133V10.1274V10.1416V10.1557V10.1699V10.184V10.1982V10.2124V10.2265V10.2407V10.2548V10.269V10.2831V10.2973V10.3114V10.3256V10.3398V10.3539V10.3681V10.3822V10.3964V10.4106V10.4247V10.4389V10.453V10.4672V10.4814V10.4955V10.5097V10.5238V10.538V10.5522V10.5663V10.5805V10.5946V10.6088V10.623V10.6371V10.6513V10.6654V10.6796V10.6938V10.7079V10.7221V10.7362V10.7504V10.7646V10.7787V10.7929V10.807V10.8212V10.8353V10.8495V10.8636V10.8778V10.892V10.9061V10.9203V10.9344V10.9486V10.9627V10.9769V10.991V11.0052V11.0193V11.0335V11.0476V11.0618V11.0759V11.0901V11.1042V11.1183V11.1325V11.1466V11.1608V11.1749V11.189V11.2032V11.2173V11.2315V11.2456V11.2597V11.2739V11.288V11.3021V11.3162V11.3304V11.3445V11.3586V11.3727V11.3869V11.401V11.4151V11.4292V11.4433V11.4575V11.4716V11.4857V11.4998V11.5139V11.528V11.5421V11.5562V11.5703V11.5844V11.5985V11.6126V11.6267V11.6408V11.6549V11.669V11.6831V11.6972V11.7113V11.7253V11.7394V11.7535V11.7676V11.7817V11.7957V11.8098V11.8239V11.838V11.852V11.8661V11.8801V11.8942V11.9083V11.9223V11.9364V11.9504V11.9645V11.9785V11.9926V12.0066V12.0206V12.0347V12.0487V12.0628V12.0768V12.0908V12.1048V12.1189V12.1329V12.1469V12.1609V12.1749V12.1889V12.2029V12.2169V12.2309V12.2449V12.2589V12.2729V12.2869V12.3009V12.3149V12.3289V12.3429V12.3568V12.3708V12.3848V12.3988V12.4127V12.4267V12.4406V12.4546V12.4686V12.4825V12.4965V12.5104V12.5243V12.5383V12.5522V12.5661V12.5801V12.594V12.6079V12.6218V12.6358V12.6497V12.6636V12.6775V12.6914V12.7053V12.7192V12.7331V12.747V12.7608V12.7747V12.7886V12.8025V12.8163V12.8302V12.8441V12.8579V12.8718V12.8856V12.8995V12.9133V12.9272V12.941V12.9548V12.9687V12.9825V12.9963V13.0101V13.0239V13.0377V13.0516V13.0654V13.0792V13.0929V13.1067V13.1205V13.1343V13.1481V13.1618V13.1756V13.1894V13.2031V13.2169V13.2306V13.2444V13.2581V13.2719V13.2856V13.2993V13.3131V13.3268V13.3405V13.3542V13.3679V13.3816V13.3953V13.409V13.4227V13.4364V13.4501V13.4637V13.4774V13.4911V13.5047V13.5184V13.532V13.5457V13.5593V13.573V13.5866V13.6002V13.6138V13.6274V13.6411V13.6547V13.6683V13.6819V13.6955V13.709V13.7226V13.7362V13.7498V13.7633V13.7769V13.7904V13.804V13.8175V13.8311V13.8446V13.8581V13.8717V13.8852V13.8987V13.9122V13.9257V13.9392V13.9527V13.9662V13.9797V13.9931V14.0066V14.0201V14.0335V14.047V14.0604V14.0739V14.0873V14.1007V14.1141V14.1276V14.141V14.1544V14.1678V14.1812V14.1946V14.2079V14.2213V14.2347V14.2481V14.2614V14.2748V14.2881V14.3014V14.3148V14.3281V14.3414V14.3547V14.3681V14.3814V14.3947V14.4079V14.4212V14.4345V14.4478V14.461V14.4743V14.4876V14.5008V14.514V14.5273V14.5405V14.5537V14.5669V14.5801V14.5933V14.6065V14.6197V14.6329V14.6461V14.6592V14.6724V14.6856V14.6987V14.7118V14.725V14.7381V14.7512V14.7643V14.7774V14.7905V14.8036V14.8167V14.8298V14.8429V14.8559V14.869V14.882V14.8951V14.9081V14.9211V14.9342V14.9472V14.9602V14.9732V14.9862V14.9992V15.0121V15.0251V15.0381V15.051V15.064V15.0769V15.0898V15.1028V15.1157V15.1286V15.1415V15.1544V15.1673V15.1802V15.193V15.2059V15.2188V15.2316V15.2445V15.2573V15.2701V15.2829V15.2957V15.3085V15.3213V15.3341V15.3469V15.3597V15.3724V15.3852V15.3979V15.4107V15.4234V15.4361V15.4489V15.4616V15.4743V15.487V15.4996V15.5123V15.525V15.5376V15.5503V15.5629V15.5756V15.5882V15.6008V15.6134V15.626V15.6386V15.6512V15.6638V15.6763V15.6889V15.7014V15.714V15.7265V15.739V15.7515V15.7641V15.7766V15.789V15.8015V15.814V15.8265V15.8389V15.8514V15.8638V15.8762V15.8886V15.901V15.9134V15.9258V15.9382V15.9506V15.963V15.9753V15.9877V16C19.5 16.823 19.9421 17.7683 20.3713 18.5099C20.4878 18.7111 20.484 18.9644 20.3756 19.175C20.2692 19.382 20.0896 19.5 19.8862 19.5H2.11383C1.91035 19.5 1.7308 19.382 1.62436 19.175C1.51605 18.9644 1.51222 18.7111 1.62869 18.5099C2.05794 17.7683 2.5 16.823 2.5 16V15.9877V15.9753V15.963V15.9506V15.9382V15.9258V15.9134V15.901V15.8886V15.8762V15.8638V15.8514V15.8389V15.8265V15.814V15.8015V15.789V15.7766V15.7641V15.7515V15.739V15.7265V15.714V15.7014V15.6889V15.6763V15.6638V15.6512V15.6386V15.626V15.6134V15.6008V15.5882V15.5756V15.5629V15.5503V15.5376V15.525V15.5123V15.4996V15.487V15.4743V15.4616V15.4489V15.4361V15.4234V15.4107V15.3979V15.3852V15.3724V15.3597V15.3469V15.3341V15.3213V15.3085V15.2957V15.2829V15.2701V15.2573V15.2445V15.2316V15.2188V15.2059V15.193V15.1802V15.1673V15.1544V15.1415V15.1286V15.1157V15.1028V15.0898V15.0769V15.064V15.051V15.0381V15.0251V15.0121V14.9992V14.9862V14.9732V14.9602V14.9472V14.9342V14.9211V14.9081V14.8951V14.882V14.869V14.8559V14.8429V14.8298V14.8167V14.8036V14.7905V14.7774V14.7643V14.7512V14.7381V14.725V14.7118V14.6987V14.6856V14.6724V14.6592V14.6461V14.6329V14.6197V14.6065V14.5933V14.5801V14.5669V14.5537V14.5405V14.5273V14.514V14.5008V14.4876V14.4743V14.461V14.4478V14.4345V14.4212V14.4079V14.3947V14.3814V14.3681V14.3547V14.3414V14.3281V14.3148V14.3014V14.2881V14.2748V14.2614V14.2481V14.2347V14.2213V14.2079V14.1946V14.1812V14.1678V14.1544V14.141V14.1276V14.1141V14.1007V14.0873V14.0739V14.0604V14.047V14.0335V14.0201V14.0066V13.9931V13.9797V13.9662V13.9527V13.9392V13.9257V13.9122V13.8987V13.8852V13.8717V13.8581V13.8446V13.8311V13.8175V13.804V13.7904V13.7769V13.7633V13.7498V13.7362V13.7226V13.709V13.6955V13.6819V13.6683V13.6547V13.6411V13.6274V13.6138V13.6002V13.5866V13.573V13.5593V13.5457V13.532V13.5184V13.5047V13.4911V13.4774V13.4637V13.4501V13.4364V13.4227V13.409V13.3953V13.3816V13.3679V13.3542V13.3405V13.3268V13.3131V13.2993V13.2856V13.2719V13.2581V13.2444V13.2306V13.2169V13.2031V13.1894V13.1756V13.1618V13.1481V13.1343V13.1205V13.1067V13.0929V13.0792V13.0654V13.0516V13.0377V13.0239V13.0101V12.9963V12.9825V12.9687V12.9548V12.941V12.9272V12.9133V12.8995V12.8856V12.8718V12.8579V12.8441V12.8302V12.8163V12.8025V12.7886V12.7747V12.7608V12.747V12.7331V12.7192V12.7053V12.6914V12.6775V12.6636V12.6497V12.6358V12.6218V12.6079V12.594V12.5801V12.5661V12.5522V12.5383V12.5243V12.5104V12.4965V12.4825V12.4686V12.4546V12.4406V12.4267V12.4127V12.3988V12.3848V12.3708V12.3568V12.3429V12.3289V12.3149V12.3009V12.2869V12.2729V12.2589V12.245V12.231V12.2169V12.2029V12.1889V12.1749V12.1609V12.1469V12.1329V12.1189V12.1048V12.0908V12.0768V12.0628V12.0487V12.0347V12.0206V12.0066V11.9926V11.9785V11.9645V11.9504V11.9364V11.9223V11.9083V11.8942V11.8801V11.8661V11.852V11.838V11.8239V11.8098V11.7957V11.7817V11.7676V11.7535V11.7394V11.7253V11.7113V11.6972V11.6831V11.669V11.6549V11.6408V11.6267V11.6126V11.5985V11.5844V11.5703V11.5562V11.5421V11.528V11.5139V11.4998V11.4857V11.4716V11.4575V11.4433V11.4292V11.4151V11.401V11.3869V11.3727V11.3586V11.3445V11.3304V11.3162V11.3021V11.288V11.2739V11.2597V11.2456V11.2315V11.2173V11.2032V11.189V11.1749V11.1608V11.1466V11.1325V11.1183V11.1042V11.0901V11.0759V11.0618V11.0476V11.0335V11.0193V11.0052V10.991V10.9769V10.9627V10.9486V10.9344V10.9203V10.9061V10.892V10.8778V10.8637V10.8495V10.8353V10.8212V10.807V10.7929V10.7787V10.7646V10.7504V10.7362V10.7221V10.7079V10.6938V10.6796V10.6654V10.6513V10.6371V10.623V10.6088V10.5946V10.5805V10.5663V10.5522V10.538V10.5238V10.5097V10.4955V10.4814V10.4672V10.453V10.4389V10.4247V10.4106V10.3964V10.3822V10.3681V10.3539V10.3398V10.3256V10.3114V10.2973V10.2831V10.269V10.2548V10.2407V10.2265V10.2124V10.1982V10.184V10.1699V10.1557V10.1416V10.1274V10.1133V10.0991V10.085V10.0708V10.0567V10.0426V10.0284V10.0143V10.0001V9.98598V9.97184V9.9577V9.94356V9.92942V9.91528V9.90114V9.88701V9.87287V9.85874V9.84461V9.83047V9.81635V9.80222V9.78809V9.77396V9.75984V9.74571V9.73159V9.71747V9.70335V9.68923V9.67511V9.661V9.64688V9.63277V9.61866V9.60455V9.59044V9.57633V9.56223V9.54812V9.53402V9.51992V9.50582V9.49172V9.47763V9.46353V9.44944V9.43535V9.42126V9.40718V9.39309V9.37901V9.36493V9.35085V9.33677V9.3227V9.30862V9.29455V9.28048V9.26641V9.25235V9.23829V9.22423V9.21017V9.19611V9.18206V9.168V9.15395V9.1399V9.12586V9.11182V9.09778V9.08374V9.0697V9.05567V9.04164V9.02761V9.01358V8.99956Z" stroke="#C09B73"/>
</svg>
