<svg width="25" height="24" viewBox="0 0 25 24" fill="none" xmlns="http://www.w3.org/2000/svg">
<g clip-path="url(#clip0_1363_14024)">
<path d="M23.9844 19C23.9844 19.5304 23.7737 20.0391 23.3986 20.4142C23.0235 20.7893 22.5148 21 21.9844 21H3.98438C3.45394 21 2.94523 20.7893 2.57016 20.4142C2.19509 20.0391 1.98438 19.5304 1.98438 19V8C1.98438 7.46957 2.19509 6.96086 2.57016 6.58579C2.94523 6.21071 3.45394 6 3.98438 6H7.98438L9.98438 3H15.9844L17.9844 6H21.9844C22.5148 6 23.0235 6.21071 23.3986 6.58579C23.7737 6.96086 23.9844 7.46957 23.9844 8V19Z" stroke="#C09B73" stroke-linecap="round" stroke-linejoin="round"/>
<path d="M12.9844 17C15.1935 17 16.9844 15.2091 16.9844 13C16.9844 10.7909 15.1935 9 12.9844 9C10.7752 9 8.98438 10.7909 8.98438 13C8.98438 15.2091 10.7752 17 12.9844 17Z" stroke="#C09B73" stroke-linecap="round" stroke-linejoin="round"/>
</g>
<defs>
<clipPath id="clip0_1363_14024">
<rect width="24" height="24" fill="white" transform="translate(0.984375)"/>
</clipPath>
</defs>
</svg>
