<svg width="25" height="24" viewBox="0 0 25 24" fill="none" xmlns="http://www.w3.org/2000/svg">
<path d="M15.0185 16.9313C16.0728 16.9313 16.9276 16.0801 16.9276 15.0301C16.9276 13.9801 16.0728 13.1289 15.0185 13.1289C13.9641 13.1289 13.1094 13.9801 13.1094 15.0301C13.1094 16.0801 13.9641 16.9313 15.0185 16.9313Z" stroke="#C09B73" stroke-linecap="round" stroke-linejoin="round"/>
<path d="M19.7286 16.9309C19.6439 17.1221 19.6186 17.3341 19.6561 17.5397C19.6935 17.7453 19.7919 17.935 19.9386 18.0843L19.9768 18.1223C20.0951 18.2401 20.189 18.3798 20.2531 18.5337C20.3171 18.6876 20.3501 18.8525 20.3501 19.0191C20.3501 19.1856 20.3171 19.3506 20.2531 19.5044C20.189 19.6583 20.0951 19.7981 19.9768 19.9158C19.8586 20.0337 19.7182 20.1272 19.5637 20.1909C19.4092 20.2547 19.2436 20.2876 19.0763 20.2876C18.9091 20.2876 18.7435 20.2547 18.589 20.1909C18.4345 20.1272 18.2941 20.0337 18.1759 19.9158L18.1377 19.8778C17.9877 19.7317 17.7972 19.6337 17.5908 19.5964C17.3844 19.5591 17.1715 19.5843 16.9795 19.6687C16.7913 19.749 16.6308 19.8824 16.5177 20.0524C16.4047 20.2224 16.344 20.4217 16.3432 20.6256V20.7333C16.3432 21.0695 16.2091 21.3919 15.9704 21.6296C15.7317 21.8673 15.408 22.0008 15.0704 22.0008C14.7329 22.0008 14.4092 21.8673 14.1705 21.6296C13.9318 21.3919 13.7977 21.0695 13.7977 20.7333V20.6763C13.7928 20.4665 13.7246 20.2631 13.602 20.0924C13.4795 19.9218 13.3082 19.7918 13.1104 19.7194C12.9185 19.635 12.7056 19.6098 12.4992 19.6471C12.2927 19.6844 12.1022 19.7824 11.9523 19.9285L11.9141 19.9665C11.7959 20.0844 11.6555 20.1778 11.501 20.2416C11.3465 20.3054 11.1809 20.3383 11.0136 20.3383C10.8464 20.3383 10.6808 20.3054 10.5262 20.2416C10.3717 20.1778 10.2314 20.0844 10.1132 19.9665C9.99483 19.8488 9.90096 19.709 9.83691 19.5551C9.77286 19.4013 9.73989 19.2363 9.73989 19.0698C9.73989 18.9032 9.77286 18.7383 9.83691 18.5844C9.90096 18.4305 9.99483 18.2908 10.1132 18.173L10.1513 18.135C10.2981 17.9857 10.3965 17.796 10.4339 17.5904C10.4713 17.3848 10.4461 17.1728 10.3613 16.9816C10.2807 16.7942 10.1467 16.6343 9.97601 16.5217C9.80528 16.4091 9.60521 16.3487 9.40044 16.3479H9.29226C8.95471 16.3479 8.63099 16.2143 8.3923 15.9766C8.15362 15.7389 8.01953 15.4166 8.01953 15.0804C8.01953 14.7442 8.15362 14.4219 8.3923 14.1842C8.63099 13.9465 8.95471 13.8129 9.29226 13.8129H9.34953C9.56016 13.808 9.76444 13.7401 9.93581 13.6181C10.1072 13.496 10.2377 13.3254 10.3104 13.1285C10.3951 12.9373 10.4204 12.7253 10.383 12.5197C10.3456 12.3141 10.2471 12.1244 10.1004 11.9751L10.0623 11.9371C9.94392 11.8194 9.85005 11.6796 9.786 11.5257C9.72195 11.3718 9.68898 11.2069 9.68898 11.0403C9.68898 10.8738 9.72195 10.7088 9.786 10.555C9.85005 10.4011 9.94392 10.2613 10.0623 10.1436C10.1805 10.0257 10.3208 9.93226 10.4753 9.86847C10.6298 9.80469 10.7955 9.77186 10.9627 9.77186C11.13 9.77186 11.2956 9.80469 11.4501 9.86847C11.6046 9.93226 11.745 10.0257 11.8632 10.1436L11.9013 10.1816C12.0513 10.3277 12.2418 10.4257 12.4482 10.463C12.6547 10.5003 12.8676 10.4751 13.0595 10.3907H13.1104C13.2987 10.3104 13.4592 10.177 13.5722 10.007C13.6853 9.83697 13.746 9.63773 13.7468 9.4338V9.32607C13.7468 8.98991 13.8809 8.66753 14.1196 8.42983C14.3583 8.19213 14.682 8.05859 15.0195 8.05859C15.3571 8.05859 15.6808 8.19213 15.9195 8.42983C16.1582 8.66753 16.2923 8.98991 16.2923 9.32607V9.3831C16.2931 9.58703 16.3538 9.78627 16.4668 9.9563C16.5799 10.1263 16.7404 10.2597 16.9286 10.34C17.1206 10.4244 17.3335 10.4496 17.5399 10.4123C17.7463 10.375 17.9368 10.277 18.0868 10.1309L18.125 10.0929C18.2432 9.97505 18.3836 9.88156 18.5381 9.81777C18.6926 9.75399 18.8582 9.72116 19.0254 9.72116C19.1927 9.72116 19.3583 9.75399 19.5128 9.81777C19.6673 9.88156 19.8077 9.97505 19.9259 10.0929C20.0442 10.2106 20.1381 10.3504 20.2022 10.5043C20.2662 10.6581 20.2992 10.8231 20.2992 10.9896C20.2992 11.1562 20.2662 11.3211 20.2022 11.475C20.1381 11.6289 20.0442 11.7687 19.9259 11.8864L19.8877 11.9244C19.741 12.0737 19.6426 12.2635 19.6052 12.469C19.5677 12.6746 19.593 12.8866 19.6777 13.0778V13.1285C19.7584 13.3159 19.8923 13.4758 20.0631 13.5884C20.2338 13.701 20.4338 13.7614 20.6386 13.7622H20.7468C21.0844 13.7622 21.4081 13.8958 21.6468 14.1335C21.8854 14.3712 22.0195 14.6935 22.0195 15.0297C22.0195 15.3659 21.8854 15.6882 21.6468 15.9259C21.4081 16.1636 21.0844 16.2972 20.7468 16.2972H20.6895C20.4848 16.298 20.2847 16.3584 20.114 16.471C19.9432 16.5836 19.8093 16.7435 19.7286 16.9309V16.9309Z" stroke="#C09B73" stroke-linecap="round" stroke-linejoin="round"/>
<path d="M4.93599 10.4357H2.98438L5.98438 2H19.9844L22.9844 10.4357H21.8995" stroke="#C09B73" stroke-linecap="round" stroke-linejoin="round"/>
<path d="M4.98438 10.4961L4.99271 19.9263H8.04091" stroke="#C09B73" stroke-linecap="round" stroke-linejoin="round"/>
</svg>
