<svg width="60" height="60" viewBox="0 0 60 60" fill="none" xmlns="http://www.w3.org/2000/svg">
<path d="M14.9385 19.4673L15.8637 17.9866L12.4291 15.8404C11.7676 15.4271 11.3415 14.9202 11.1506 14.3199C10.9661 13.7093 11.071 13.0886 11.4653 12.4576C11.8595 11.8267 12.3683 11.4654 12.9916 11.3738C13.6212 11.2719 14.2667 11.4277 14.9282 11.841L22.7133 16.7057C23.3748 17.119 23.7978 17.631 23.9823 18.2415C24.1731 18.8419 24.0714 19.4575 23.6772 20.0885C23.2829 20.7194 22.771 21.0858 22.1413 21.1876C21.5181 21.2793 20.8757 21.1184 20.2142 20.7051L16.7796 18.5589L15.8544 20.0396L21.4261 23.5212L20.93 24.315L8.8708 16.7795L9.36681 15.9857L14.9385 19.4673ZM12.3812 13.03C12.1777 13.3556 12.1014 13.7041 12.1523 14.0756C12.2096 14.4368 12.4672 14.7605 12.9251 15.0467L20.7102 19.9113C21.1682 20.1975 21.572 20.2871 21.9218 20.1802C22.278 20.0632 22.5578 19.8418 22.7613 19.5162C22.9648 19.1905 23.0379 18.8471 22.9806 18.4858C22.9297 18.1144 22.6753 17.7856 22.2173 17.4995L14.4322 12.6348C13.9743 12.3487 13.5672 12.2641 13.2111 12.3812C12.8613 12.488 12.5847 12.7043 12.3812 13.03ZM6.80097 20.4316L17.639 27.204L18.488 25.8454L7.6499 19.073L8.1459 18.2793L19.8999 25.6239L18.0589 28.5701L7.22086 21.7977L6.28608 23.2936L17.2768 30.1614L16.7808 30.9552L4.87418 23.5151L6.80097 20.4316Z" fill="white"/>
<path d="M29.9022 22.6836L30.8561 21.1571L31.772 21.7294L30.8181 23.2559L34.558 25.5929L34.062 26.3866L30.719 24.2977L27.0035 37.343L26.057 36.7516L29.683 24.0536L19.8595 32.879L18.9131 32.2876L28.9941 23.2198L25.6663 21.1404L26.1624 20.3467L29.9022 22.6836ZM37.3628 25.8597L38.2787 26.432L34.8925 31.8511L36.877 33.0911L36.3809 33.8848L34.3965 32.6448L30.2091 39.3461L29.2932 38.7738L37.3628 25.8597Z" fill="white"/>
<path d="M49.0967 33.1919L48.6007 33.9857L41.7468 29.7028L34.6692 41.0294L37.8443 43.0134C38.6889 43.5412 39.4954 44.0168 40.2638 44.4403C41.0423 44.8702 41.8119 45.2238 42.5725 45.501L42.0765 46.2948C41.3159 46.0175 40.5463 45.664 39.7678 45.2341C38.9994 44.8106 38.1929 44.335 37.3483 43.8072L33.2573 41.2508L41.3269 28.3368L49.0967 33.1919ZM51.5544 34.7276L52.4703 35.2999L49.0841 40.7189L51.0685 41.9589L50.5725 42.7527L48.5881 41.5127L44.4007 48.214L43.4848 47.6417L51.5544 34.7276Z" fill="white"/>
</svg>
