<svg width="60" height="60" viewBox="0 0 60 60" fill="none" xmlns="http://www.w3.org/2000/svg">
<path d="M22.8331 21.8555L27.5143 24.7806L26.6771 26.1205L24.2516 24.605L23.2978 26.1314L28.8271 29.5865L27.9792 30.9434L15.2245 22.9734L16.0724 21.6165L21.6187 25.0822L22.5725 23.5557L20.3676 22.1779L23.8121 16.6656L29.9858 20.5234L29.1168 21.9142L24.5712 19.0739L22.8331 21.8555Z" fill="white"/>
<path d="M29.6506 33.0727L32.332 28.7815L36.4874 31.3781L37.4837 29.7838L33.3282 27.1872L34.1655 25.8473L39.9492 29.4613L37.3208 33.6677L33.1484 31.0605L32.1204 32.7057L36.5981 35.5036L35.7396 36.8775L29.6506 33.0727ZM43.5575 30.0652C43.419 29.7585 43.2712 29.454 43.1143 29.1515C42.9758 28.8448 42.8337 28.5438 42.6881 28.2484C42.8987 28.1127 43.1114 27.9862 43.3262 27.8689C43.541 27.7516 43.7594 27.6286 43.9813 27.5L45.722 30.2622L43.5388 33.7561L45.8963 35.2293L45.0485 36.5862L42.6909 35.113L40.4122 38.7596L38.767 37.7316L43.5575 30.0652ZM32.0783 36.5471L33.7575 37.5963L31.9133 40.5476L37.29 43.9072L36.4421 45.2641L29.3863 40.8552L32.0783 36.5471Z" fill="white"/>
</svg>
