<svg width="60" height="60" viewBox="0 0 60 60" fill="none" xmlns="http://www.w3.org/2000/svg">
<path d="M16.36 17.2233C17.1796 15.9116 18.2212 15.1632 19.4847 14.9779C20.7666 14.7884 22.216 15.1988 23.8329 16.2092C25.4499 17.2196 26.4485 18.3389 26.8288 19.567C27.2275 20.7909 27.017 22.0587 26.1974 23.3703C25.3707 24.6933 24.32 25.4439 23.0452 25.6221C21.7817 25.8073 20.3414 25.3948 18.7245 24.3844C17.1075 23.374 16.0997 22.2569 15.7011 21.033C15.3137 19.8161 15.5334 18.5462 16.36 17.2233ZM29.8838 20.226L33.6321 22.5683L28.2376 31.2014L24.4892 28.8592L29.8838 20.226ZM19.106 23.7738C19.3435 23.9222 19.5746 23.9801 19.7993 23.9476C20.0353 23.9221 20.2777 23.7984 20.5264 23.5765C20.7864 23.3617 21.0712 23.0443 21.3807 22.6246C21.6902 22.2048 22.0463 21.6726 22.449 21.0281C22.8447 20.3949 23.1633 19.8472 23.405 19.385C23.6466 18.9228 23.807 18.5278 23.8861 18.1999C23.9765 17.8791 23.9814 17.607 23.9009 17.3837C23.8316 17.1675 23.6782 16.9852 23.4408 16.8368C23.2033 16.6884 22.9666 16.6269 22.7306 16.6524C22.5058 16.6849 22.2635 16.8086 22.0034 17.0235C21.7547 17.2454 21.4756 17.5662 21.1661 17.986C20.8566 18.4058 20.5041 18.9323 20.1084 19.5655C19.7057 20.21 19.3835 20.7634 19.1418 21.2256C18.9002 21.6878 18.7342 22.0793 18.6437 22.4001C18.5646 22.728 18.5597 23.0001 18.629 23.2163C18.7096 23.4396 18.8686 23.6254 19.106 23.7738ZM11.1628 27.4655C11.943 27.953 12.7316 28.2886 13.5288 28.4722C14.3188 28.6672 15.0608 28.7378 15.7548 28.684C16.4558 28.619 17.0833 28.4451 17.6373 28.1623C18.1984 27.8683 18.6308 27.4782 18.9346 26.992L19.6553 25.8386L23.5563 28.2763L22.8356 29.4296C22.3693 30.1759 21.6994 30.6692 20.826 30.9096C19.971 31.1457 18.9972 31.1818 17.9047 31.0179C16.8235 30.8612 15.6666 30.5235 14.4341 30.0049C13.2017 29.4863 11.9805 28.849 10.7706 28.093L11.1628 27.4655ZM22.0112 32.3341C22.3786 31.7461 22.8563 31.3842 23.4442 31.2485C24.0392 31.1015 24.642 31.2187 25.2526 31.6003C25.8406 31.9677 26.1989 32.451 26.3276 33.0502C26.4633 33.6382 26.3475 34.2261 25.9801 34.8141C25.5986 35.4247 25.1138 35.7979 24.5259 35.9336C23.938 36.0693 23.35 35.9535 22.762 35.5861C22.1514 35.2045 21.7783 34.7198 21.6425 34.1319C21.5068 33.5439 21.6297 32.9447 22.0112 32.3341Z" fill="white"/>
<path d="M34.9228 24.7426L37.857 26.5761L38.6625 25.2871L42.4108 27.6293L41.6054 28.9184L44.6244 30.8049L44.1369 31.5851L34.4352 25.5228L34.9228 24.7426ZM45.9006 30.2345L49.649 32.5767L44.371 41.0233L40.6226 38.681L45.9006 30.2345ZM32.4195 29.2393C33.7266 27.1475 35.918 27.0625 38.9935 28.9843C42.0578 30.8991 42.9364 32.9024 41.6293 34.9943C40.3221 37.0861 38.1364 37.1747 35.0721 35.2599C31.9966 33.338 31.1123 31.3312 32.4195 29.2393ZM35.3689 34.785C35.5498 34.898 35.7272 34.9538 35.901 34.9524C36.0862 34.958 36.2784 34.8895 36.4776 34.7467C36.6953 34.5997 36.9271 34.3672 37.1729 34.0492C37.4259 33.7198 37.7184 33.2895 38.0505 32.758C38.3826 32.2266 38.6376 31.7806 38.8157 31.4202C39.0008 31.0485 39.1082 30.7383 39.1378 30.4895C39.1859 30.2365 39.1668 30.0281 39.0805 29.8641C39.0056 29.7072 38.8777 29.5723 38.6968 29.4592C38.5046 29.3391 38.3215 29.2798 38.1477 29.2812C37.9739 29.2826 37.7781 29.3569 37.5605 29.5039C37.3612 29.6466 37.1351 29.8827 36.8821 30.212C36.6363 30.53 36.3473 30.9548 36.0152 31.4862C35.6831 32.0176 35.4245 32.4692 35.2394 32.841C35.0613 33.2014 34.9483 33.5081 34.9003 33.7611C34.8706 34.0098 34.8933 34.2126 34.9682 34.3695C35.0431 34.5264 35.1767 34.6649 35.3689 34.785ZM28.356 35.5912C28.6104 35.1842 28.9679 34.8888 29.4287 34.705C29.8965 34.5099 30.4851 34.4611 31.1946 34.5585C31.9041 34.656 32.7422 34.9124 33.709 35.3279C34.6941 35.739 35.8255 36.3438 37.1033 37.1423C38.381 37.9407 39.4149 38.6889 40.205 39.387C41.0135 40.0809 41.6171 40.7253 42.0157 41.3203C42.4143 41.9153 42.6285 42.4658 42.6582 42.9717C42.695 43.4664 42.5862 43.9172 42.3319 44.3243C42.0775 44.7314 41.7164 45.0324 41.2486 45.2275C40.7808 45.4226 40.1922 45.4714 39.4827 45.374C38.7732 45.2765 37.9294 45.0165 36.9513 44.5941C35.9775 44.1899 34.8517 43.5887 33.574 42.7903C32.2963 41.9918 31.2567 41.24 30.4553 40.5349C29.6581 39.8481 29.0602 39.2072 28.6616 38.6122C28.263 38.0172 28.0488 37.4668 28.0191 36.9608C27.9893 36.4548 28.1017 35.9983 28.356 35.5912ZM32.1044 37.9335C31.7229 38.5441 31.6812 39.202 31.9795 39.9072C32.282 40.6308 32.976 41.3318 34.0615 42.01C35.147 42.6883 36.0756 43.0013 36.8473 42.9489C37.6232 42.915 38.2019 42.5927 38.5835 41.9821C38.965 41.3715 39.001 40.71 38.6914 39.9977C38.3931 39.2925 37.7012 38.6008 36.6157 37.9225C35.5302 37.2442 34.5995 36.922 33.8236 36.956C33.059 36.9971 32.4859 37.3229 32.1044 37.9335Z" fill="white"/>
</svg>
