<svg width="60" height="60" viewBox="0 0 60 60" fill="none" xmlns="http://www.w3.org/2000/svg">
<path d="M22.6012 33.7271L21.3755 32.9612L29.138 20.5386L30.3637 21.3045L22.6012 33.7271ZM29.8571 28.5651C29.6984 28.8191 29.4721 28.9848 29.1781 29.0621C28.8842 29.1394 28.5991 29.0918 28.3231 28.9193C28.047 28.7468 27.8793 28.5115 27.8199 28.2134C27.7606 27.9153 27.8102 27.6392 27.9689 27.3852C28.1276 27.1313 28.354 26.9656 28.6479 26.8883C28.9419 26.811 29.2269 26.8586 29.503 27.0311C29.779 27.2036 29.9468 27.4389 30.0061 27.737C30.0655 28.0351 30.0158 28.3112 29.8571 28.5651ZM21.7364 17.6409L20.9652 28.7896L19.487 28.8332L20.2253 20.0592L12.8285 24.6725L12.2197 23.3248L21.7364 17.6409Z" fill="white"/>
<path d="M47.6812 36.824C47.5225 37.078 47.2962 37.2436 47.0022 37.3209C46.7082 37.3983 46.4232 37.3507 46.1471 37.1782C45.8711 37.0057 45.7034 36.7704 45.644 36.4722C45.5846 36.1741 45.6343 35.8981 45.793 35.6441C45.9517 35.3901 46.178 35.2245 46.472 35.1472C46.766 35.0698 47.051 35.1174 47.327 35.2899C47.6031 35.4624 47.7708 35.6977 47.8302 35.9959C47.8896 36.294 47.8399 36.57 47.6812 36.824ZM33.1891 37.3492C33.0304 37.6031 32.9373 37.875 32.9097 38.1649C32.889 38.4437 32.9263 38.728 33.0216 39.0178C33.1237 39.2966 33.2852 39.5664 33.5061 39.8273C33.72 40.0992 33.9927 40.3386 34.3239 40.5456C34.6552 40.7526 34.9899 40.8927 35.3281 40.9658C35.6593 41.0499 35.9726 41.0768 36.268 41.0464C36.5703 41.005 36.8421 40.9139 37.0837 40.7731C37.3321 40.6212 37.5357 40.4183 37.6944 40.1643C37.8462 39.9214 37.9358 39.655 37.9634 39.3652C37.991 39.0753 37.9572 38.7855 37.8619 38.4957C37.7597 38.2169 37.5982 37.9471 37.3774 37.6862C37.1634 37.4143 36.8908 37.1749 36.5595 36.9679C36.2283 36.7609 35.8935 36.6208 35.5554 36.5477C35.2241 36.4636 34.9108 36.4367 34.6155 36.4671C34.3132 36.5085 34.0379 36.6051 33.7894 36.757C33.541 36.9088 33.3409 37.1062 33.1891 37.3492ZM31.9634 36.5833C32.2256 36.1636 32.5554 35.8324 32.9529 35.5894C33.3504 35.3465 33.792 35.1925 34.2779 35.1276C34.7458 35.0668 35.2344 35.0958 35.7437 35.2144C36.253 35.3331 36.7561 35.5476 37.253 35.8581C37.7499 36.1686 38.1633 36.5268 38.4932 36.9325C38.8231 37.3383 39.0688 37.7682 39.2303 38.2223C39.3739 38.6805 39.4237 39.1415 39.3795 39.6052C39.3354 40.069 39.1822 40.5106 38.92 40.9302C38.6578 41.3499 38.328 41.6811 37.9305 41.9241C37.5331 42.167 37.0969 42.3244 36.6221 42.3962C36.1432 42.4501 35.6491 42.4177 35.1398 42.2991C34.6305 42.1804 34.1274 41.9659 33.6305 41.6554C33.1336 41.3449 32.7202 40.9867 32.3903 40.581C32.0604 40.1752 31.8202 39.7488 31.6697 39.3016C31.515 38.8365 31.4598 38.372 31.5039 37.9083C31.548 37.4445 31.7012 37.0029 31.9634 36.5833ZM41.9457 29.2327L39.7929 32.6779L34.2608 29.221L33.381 30.6289L39.2445 34.2928L38.551 35.4026L31.4619 30.9728L33.6871 27.4116L39.2193 30.8685L40.0266 29.5766L34.4944 26.1197L35.1879 25.0099L41.9457 29.2327ZM42.133 39.253L40.9073 38.4871L45.8753 30.5366L47.101 31.3025L42.133 39.253Z" fill="white"/>
</svg>
