<svg width="60" height="60" viewBox="0 0 60 60" fill="none" xmlns="http://www.w3.org/2000/svg">
<path d="M20.7385 19.8013C22.0092 20.4852 23.1547 20.7529 24.1751 20.6044C25.2139 20.4517 26.0301 19.9004 26.6236 18.9506L27.5138 17.5259L28.9216 18.4055L28.0313 19.8303C27.4449 20.7688 27.3029 21.7256 27.6055 22.7008C27.9193 23.683 28.6508 24.5882 29.7999 25.4163L29.0368 26.6375C28.0206 25.9238 27.246 25.1254 26.7131 24.2421C26.1873 23.3475 25.9462 22.4501 25.9899 21.5498C25.1858 22.0064 24.2516 22.193 23.1873 22.1097C22.1415 22.0222 21.0638 21.6711 19.9543 21.0564L20.7385 19.8013ZM21.0493 32.5891L24.0168 27.84L21.2352 26.1018L18.2677 30.8509L16.8769 29.9819L19.8444 25.2328L15.8755 22.7528L16.6598 21.4976L30.0929 29.8916L29.3086 31.1467L25.4076 28.7091L22.4401 33.4581L21.0493 32.5891Z" fill="white"/>
<path d="M36.462 29.6264L42.4153 33.3464L41.631 34.6015L35.0502 30.4894C34.8014 30.3339 34.648 30.1516 34.5901 29.9424C34.5505 29.729 34.6084 29.4979 34.7639 29.2492L36.8199 25.9588L42.6036 29.5728L43.5363 28.0802L37.7526 24.4662L38.5369 23.2111L44.9481 27.2173C45.1969 27.3727 45.3411 27.5571 45.3807 27.7705C45.4386 27.9797 45.3899 28.2087 45.2344 28.4574L43.2208 31.68L37.4371 28.066L36.462 29.6264ZM43.4927 38.2647L42.7084 39.5198L36.6873 35.7574L35.1823 38.1658L33.7915 37.2968L35.2965 34.8883L29.2754 31.1259L30.0596 29.8708L43.4927 38.2647ZM37.3702 38.5896L38.761 39.4587L35.1046 45.3102L28.0318 40.8907C27.7831 40.7353 27.6333 40.5473 27.5824 40.3268C27.5357 40.1247 27.5901 39.8993 27.7455 39.6505L30.925 34.5623L32.3158 35.4313L31.2348 37.1613L35.3394 39.7261L34.5551 40.9813L30.4505 38.4165L29.4437 40.0277L34.498 43.1861L37.3702 38.5896Z" fill="white"/>
</svg>
