<svg width="29" height="28" viewBox="0 0 29 28" fill="none" xmlns="http://www.w3.org/2000/svg">
<path d="M5.9215 21.4875H10.7148C10.8343 22.4438 11.2962 23.325 12.0158 23.9676C12.7465 24.62 13.6919 24.9806 14.6715 24.9806C15.6511 24.9806 16.5965 24.62 17.3272 23.9676C18.0469 23.325 18.5088 22.4438 18.6283 21.4875L23.4215 21.4875L23.4217 21.4875C23.6605 21.4867 23.8948 21.4231 24.1013 21.3032C24.3077 21.1832 24.479 21.0112 24.5981 20.8042C24.7171 20.5972 24.7796 20.3626 24.7794 20.1238C24.7792 19.885 24.7162 19.6505 24.5969 19.4438C23.9714 18.3598 23.034 15.3209 23.034 11.375C23.034 9.15713 22.153 7.03009 20.5847 5.46182C19.0164 3.89355 16.8894 3.0125 14.6715 3.0125C12.4536 3.0125 10.3266 3.89355 8.75834 5.46182C7.19006 7.03009 6.30902 9.15713 6.30902 11.375C6.30902 15.321 5.3705 18.3598 4.74514 19.4382C4.62434 19.6452 4.56027 19.8803 4.55938 20.12C4.5585 20.3597 4.62087 20.5954 4.74019 20.8032C4.8595 21.0111 5.03155 21.1839 5.23896 21.304C5.44637 21.4241 5.68181 21.4874 5.9215 21.4875ZM23.7555 20.3189L23.7552 20.3193C23.7222 20.3783 23.674 20.4274 23.6155 20.4613C23.5571 20.4953 23.4906 20.513 23.423 20.5125H23.4226L5.92152 20.5125L5.92116 20.5125C5.85355 20.513 5.78706 20.4953 5.72861 20.4613L5.70348 20.5046L5.72861 20.4613C5.67017 20.4274 5.62192 20.3783 5.5889 20.3193L5.58857 20.3188C5.55456 20.2598 5.53665 20.193 5.53665 20.125C5.53665 20.057 5.55456 19.9902 5.58857 19.9312C6.40826 18.5177 7.28402 15.2432 7.28402 11.375C7.28402 9.41571 8.06234 7.53667 9.44777 6.15125C10.8332 4.76582 12.7122 3.9875 14.6715 3.9875C16.6308 3.9875 18.5098 4.76582 19.8953 6.15125C21.2807 7.53667 22.059 9.41571 22.059 11.375C22.059 15.2422 22.9348 18.5178 23.7545 19.9313L23.7545 19.9314C23.7887 19.9902 23.8068 20.057 23.8069 20.125C23.8071 20.193 23.7894 20.2599 23.7555 20.3189ZM14.6715 24.0125C13.9472 24.0124 13.2471 23.7514 12.6996 23.2771C12.1666 22.8155 11.8129 22.1821 11.699 21.4875H17.644C17.5301 22.1821 17.1764 22.8155 16.6435 23.2771C16.0959 23.7514 15.3959 24.0124 14.6715 24.0125Z" fill="#C09B73" stroke="#C09B73" stroke-width="0.1" stroke-linejoin="round"/>
</svg>
