<svg width="32" height="36" viewBox="0 0 32 36" fill="none" xmlns="http://www.w3.org/2000/svg">
<path d="M0.5 12.3574H31.5V32.235C31.5 32.394 31.4244 32.5436 31.2963 32.6378L27.918 35.1225C27.7254 35.2642 27.3991 35.2864 27.1033 35.1419C25.7874 34.4993 22.6222 33.4455 16 33.4455C9.37782 33.4455 6.21262 34.4993 4.89668 35.1419L5.11609 35.5912L4.89668 35.1419C4.60086 35.2864 4.27461 35.2642 4.08196 35.1225L0.703748 32.6378C0.575644 32.5436 0.5 32.394 0.5 32.235V12.3574Z" fill="#BDC7E4" stroke="#1A2A53"/>
<path d="M0 5.63674C0 4.87685 0.29002 4.14634 0.90861 3.705C2.68732 2.43595 7.2422 0 16 0C24.7578 0 29.3127 2.43595 31.0914 3.705C31.71 4.14634 32 4.87685 32 5.63674V32.0579C32 32.9658 30.7365 33.5689 29.9465 33.1217C27.6556 31.8248 23.2806 30.1423 16 30.1423C8.71936 30.1423 4.34436 31.8248 2.05353 33.1217C1.26351 33.5689 0 32.9658 0 32.0579V5.63674Z" fill="#1A2A53"/>
<path d="M15.8008 10.0977V20.0977" stroke="#ECF1FF" stroke-width="2" stroke-linecap="round" stroke-linejoin="round"/>
<path d="M10.8047 15.0977H20.8047" stroke="#ECF1FF" stroke-width="2" stroke-linecap="round" stroke-linejoin="round"/>
</svg>
