<svg width="79" height="61" viewBox="0 0 79 61" fill="none" xmlns="http://www.w3.org/2000/svg">
<path d="M0.27014 13.9138L8.49838 0.7459L18.6352 7.08009L10.407 20.248L0.27014 13.9138ZM9.65517 17.36L15.7099 7.6704L9.25017 3.63391L3.19543 13.3235L9.65517 17.36ZM15.3454 27.8249L13.5068 26.676L25.1506 8.04217L26.9891 9.19102L15.3454 27.8249ZM26.2293 20.082C25.9912 20.4629 25.6517 20.7114 25.2108 20.8274C24.7698 20.9433 24.3423 20.872 23.9282 20.6132C23.5141 20.3545 23.2625 20.0015 23.1735 19.5543C23.0844 19.1071 23.1589 18.6931 23.3969 18.3121C23.635 17.9311 23.9745 17.6827 24.4155 17.5667C24.8564 17.4507 25.2839 17.5221 25.698 17.7809C26.1121 18.0396 26.3637 18.3926 26.4528 18.8397C26.5418 19.2869 26.4673 19.701 26.2293 20.082Z" fill="white"/>
<path d="M23.3114 33.3208L27.1926 27.1095L45.2799 38.4117L41.3987 44.623L23.3114 33.3208ZM27.9444 29.9975L26.2367 32.7305L40.6469 41.735L42.3546 39.002L27.9444 29.9975ZM27.27 24.2214L28.3568 22.4823L48.9285 35.337L47.8418 37.0761L27.27 24.2214ZM39.3375 21.0527C38.8718 21.7981 38.7435 22.5931 38.9527 23.4378C39.1888 24.2762 39.7789 24.9904 40.723 25.5804C41.6671 26.1703 42.5594 26.3824 43.4 26.2167C44.2674 26.0448 44.934 25.5862 45.3998 24.8408C45.8655 24.0955 45.9803 23.3036 45.7442 22.4651C45.5351 21.6204 44.9584 20.9031 44.0143 20.3132C43.0702 19.7232 42.1644 19.5142 41.297 19.6861C40.4564 19.8518 39.8033 20.3074 39.3375 21.0527ZM37.5238 19.9194C37.8757 19.3562 38.3281 18.8904 38.8808 18.5218C39.4501 18.1636 40.0774 17.9337 40.7626 17.8322C41.4313 17.7204 42.128 17.7296 42.8526 17.86C43.5938 18.0007 44.3122 18.2884 45.0079 18.7231C45.7036 19.1578 46.2688 19.6722 46.7036 20.2664C47.155 20.8708 47.4853 21.5033 47.6944 22.1637C47.887 22.8138 47.9389 23.468 47.8499 24.1263C47.7775 24.7951 47.5654 25.411 47.2135 25.9741C46.8409 26.5704 46.3699 27.0477 45.8006 27.4059C45.2479 27.7745 44.6371 28.0147 43.9684 28.1265C43.2832 28.228 42.5751 28.2002 41.8443 28.0429C41.13 27.896 40.4251 27.6052 39.7294 27.1705C39.0337 26.7358 38.455 26.2244 37.9933 25.6365C37.5481 25.0589 37.2292 24.4451 37.0366 23.7951C36.8275 23.1347 36.7591 22.4701 36.8315 21.8014C36.9205 21.143 37.1512 20.5157 37.5238 19.9194Z" fill="white"/>
<path d="M67.5382 53.8748L68.656 52.086L52.4073 41.9326L53.463 40.2432L71.5503 51.5453L68.3521 56.6635L52.1034 46.5101L50.9235 48.3983L67.1722 58.5517L66.1165 60.2412L48.0292 48.939L51.2895 43.7215L67.5382 53.8748ZM72.2333 49.8994L70.3948 48.7505L76.2943 39.3094L78.1328 40.4582L72.2333 49.8994ZM68.9092 36.422L64.0965 44.124L62.2579 42.9751L66.015 36.9626L57.4682 31.622L58.5239 29.9326L68.9092 36.422ZM72.8163 41.2817C72.5783 41.6626 72.2439 41.9028 71.8133 42.0022C71.3993 42.112 70.9935 42.0427 70.596 41.7943C70.1984 41.5459 69.95 41.2064 69.8506 40.7758C69.7677 40.3555 69.8453 39.9549 70.0834 39.5739C70.3214 39.193 70.6475 38.9476 71.0615 38.8378C71.4921 38.7384 71.9062 38.8129 72.3037 39.0613C72.7012 39.3097 72.9414 39.644 73.0243 40.0643C73.1237 40.4949 73.0544 40.9007 72.8163 41.2817ZM70.0995 45.6296C69.8614 46.0105 69.5271 46.2507 69.0965 46.3501C68.6824 46.4599 68.2766 46.3906 67.8791 46.1422C67.4816 45.8938 67.2331 45.5543 67.1337 45.1237C67.0508 44.7034 67.1284 44.3028 67.3665 43.9218C67.6045 43.5409 67.9306 43.2955 68.3446 43.1857C68.7753 43.0863 69.1893 43.1608 69.5868 43.4092C69.9844 43.6576 70.2246 43.992 70.3074 44.4122C70.4068 44.8428 70.3375 45.2486 70.0995 45.6296Z" fill="white"/>
</svg>
