<svg width="25" height="24" viewBox="0 0 25 24" fill="none" xmlns="http://www.w3.org/2000/svg">
<path d="M18.9844 8C20.6412 8 21.9844 6.65685 21.9844 5C21.9844 3.34315 20.6412 2 18.9844 2C17.3275 2 15.9844 3.34315 15.9844 5C15.9844 6.65685 17.3275 8 18.9844 8Z" stroke="#C09B73" stroke-linecap="round" stroke-linejoin="round"/>
<path d="M6.98438 15C8.64123 15 9.98438 13.6569 9.98438 12C9.98438 10.3431 8.64123 9 6.98438 9C5.32752 9 3.98438 10.3431 3.98438 12C3.98438 13.6569 5.32752 15 6.98438 15Z" stroke="#C09B73" stroke-linecap="round" stroke-linejoin="round"/>
<path d="M18.9844 22C20.6412 22 21.9844 20.6569 21.9844 19C21.9844 17.3431 20.6412 16 18.9844 16C17.3275 16 15.9844 17.3431 15.9844 19C15.9844 20.6569 17.3275 22 18.9844 22Z" stroke="#C09B73" stroke-linecap="round" stroke-linejoin="round"/>
<path d="M9.57422 13.5117L16.4042 17.4917" stroke="#C09B73" stroke-linecap="round" stroke-linejoin="round"/>
<path d="M16.3942 6.51172L9.57422 10.4917" stroke="#C09B73" stroke-linecap="round" stroke-linejoin="round"/>
</svg>
