<svg width="242" height="64" viewBox="0 0 242 64" fill="none" xmlns="http://www.w3.org/2000/svg">
<path fill-rule="evenodd" clip-rule="evenodd" d="M11.2188 1.38672C5.6959 1.38672 1.21875 5.86387 1.21875 11.3867V45.3867C1.21875 50.9096 5.69591 55.3867 11.2188 55.3867H136.6C136.556 55.8853 136.479 56.3741 136.354 56.8206C136.017 58.0212 135.138 59.609 134.365 60.8674C133.773 61.8301 134.36 63.0384 135.485 62.93C137.676 62.7187 141.014 61.935 144.245 59.3657C146.008 57.9637 147.336 56.5962 148.327 55.3867H231.219C236.742 55.3867 241.219 50.9096 241.219 45.3867V11.3867C241.219 5.86387 236.742 1.38672 231.219 1.38672H11.2188Z" fill="white"/>
<path d="M136.6 55.3867L137.098 55.4298C137.11 55.2903 137.063 55.152 136.968 55.0488C136.873 54.9455 136.74 54.8867 136.6 54.8867V55.3867ZM136.354 56.8206L135.872 56.6854V56.6854L136.354 56.8206ZM134.365 60.8674L133.939 60.6056L134.365 60.8674ZM135.485 62.93L135.437 62.4323L135.485 62.93ZM144.245 59.3657L143.934 58.9743L144.245 59.3657ZM148.327 55.3867V54.8867C148.177 54.8867 148.035 54.9539 147.94 55.0699L148.327 55.3867ZM1.71875 11.3867C1.71875 6.14001 5.97204 1.88672 11.2188 1.88672V0.886719C5.41976 0.886719 0.71875 5.58773 0.71875 11.3867H1.71875ZM1.71875 45.3867V11.3867H0.71875V45.3867H1.71875ZM11.2188 54.8867C5.97205 54.8867 1.71875 50.6334 1.71875 45.3867H0.71875C0.71875 51.1857 5.41977 55.8867 11.2188 55.8867V54.8867ZM136.6 54.8867H11.2188V55.8867H136.6V54.8867ZM136.101 55.3436C136.06 55.8206 135.987 56.2771 135.872 56.6854L136.835 56.9557C136.971 56.4711 137.053 55.9499 137.098 55.4298L136.101 55.3436ZM135.872 56.6854C135.556 57.8116 134.713 59.3462 133.939 60.6056L134.791 61.1292C135.564 59.8718 136.477 58.2309 136.835 56.9557L135.872 56.6854ZM133.939 60.6056C133.554 61.2316 133.54 61.9615 133.838 62.5316C134.142 63.1143 134.76 63.5022 135.533 63.4277L135.437 62.4323C135.085 62.4662 134.847 62.3041 134.725 62.0691C134.595 61.8215 134.584 61.4659 134.791 61.1292L133.939 60.6056ZM135.533 63.4277C137.791 63.2099 141.229 62.4022 144.556 59.7571L143.934 58.9743C140.798 61.4677 137.56 62.2276 135.437 62.4323L135.533 63.4277ZM144.556 59.7571C146.348 58.3325 147.701 56.9399 148.714 55.7036L147.94 55.0699C146.972 56.2526 145.668 57.595 143.934 58.9743L144.556 59.7571ZM231.219 54.8867H148.327V55.8867H231.219V54.8867ZM240.719 45.3867C240.719 50.6334 236.465 54.8867 231.219 54.8867V55.8867C237.018 55.8867 241.719 51.1857 241.719 45.3867H240.719ZM240.719 11.3867V45.3867H241.719V11.3867H240.719ZM231.219 1.88672C236.465 1.88672 240.719 6.14001 240.719 11.3867H241.719C241.719 5.58773 237.018 0.886719 231.219 0.886719V1.88672ZM11.2188 1.88672H231.219V0.886719H11.2188V1.88672Z" fill="#4C3E34"/>
</svg>
