<svg width="66" height="48" viewBox="0 0 66 48" fill="none" xmlns="http://www.w3.org/2000/svg">
<path d="M7.31414 1.35103C8.25039 1.93606 9.16627 2.35743 10.0618 2.61514C10.9709 2.88132 11.8197 2.98724 12.6083 2.93289C13.419 2.87346 14.1517 2.65206 14.8063 2.26871C15.4745 1.89383 16.0248 1.36038 16.4572 0.668377L16.6861 0.30202L21.5302 3.32892L21.0723 4.06163C20.4958 4.98431 19.7437 5.59918 18.816 5.90624C17.8883 6.2133 16.813 6.25835 15.5902 6.04138C14.3674 5.8244 13.0156 5.37594 11.5349 4.69598C10.0763 4.01094 8.51253 3.14697 6.84357 2.10409L7.31414 1.35103ZM21.1239 10.9991C20.3911 10.5413 19.9433 9.95957 19.7805 9.25405C19.6261 8.53496 19.7778 7.80906 20.2356 7.07635C20.6765 6.37077 21.2497 5.93654 21.9553 5.77366C22.6608 5.61078 23.3799 5.75826 24.1126 6.21611C24.8182 6.657 25.2524 7.23021 25.4153 7.93573C25.5782 8.64125 25.4392 9.3468 24.9983 10.0524C24.5404 10.7851 23.9545 11.2397 23.2405 11.4161C22.535 11.579 21.8294 11.44 21.1239 10.9991ZM6.27888 2.82664L23.864 13.815L23.279 14.7513L5.69384 3.76289L6.27888 2.82664ZM18.0265 23.61L17.4414 24.5462L1.26066 14.4354C0.785756 14.1386 0.492313 13.7477 0.380331 13.2627C0.27344 12.7997 0.351414 12.3579 0.614254 11.9372C0.860137 11.5437 1.22306 11.28 1.70301 11.1459C2.19653 11.0204 2.68075 11.106 3.15566 11.4027L14.6552 18.5884L15.2529 17.6318L3.7534 10.4461C3.2785 10.1494 2.97657 9.77206 2.84764 9.31415C2.74074 8.85115 2.81024 8.42291 3.05612 8.02941C3.29353 7.64949 3.64373 7.40608 4.10672 7.29919C4.58329 7.20078 5.05903 7.29995 5.53393 7.5967L17.0335 14.7824L17.6439 13.8055L4.92321 5.85667L5.50824 4.92042L21.1191 14.6752C21.594 14.9719 21.8849 15.3518 21.9918 15.8148C22.1123 16.2863 22.0538 16.712 21.8164 17.0919C21.5705 17.4854 21.2093 17.7314 20.7327 17.8298C20.2782 17.9231 19.8135 17.8214 19.3386 17.5246L7.83905 10.3389L7.22858 11.3159L18.7281 18.5016C19.203 18.7983 19.4939 19.1782 19.6008 19.6412C19.7213 20.1127 19.667 20.5316 19.4381 20.8979C19.1838 21.305 18.8225 21.551 18.3544 21.6358C17.8999 21.7291 17.4352 21.6274 16.9603 21.3307L5.46077 14.145L4.73584 15.3051L18.0265 23.61Z" fill="white"/>
<path d="M23.8711 16.9891C24.7802 17.5572 25.6995 17.943 26.6289 18.1464C27.5719 18.3583 28.4912 18.3667 29.3866 18.1716C30.2906 17.9629 31.153 17.549 31.9738 16.9299C32.803 16.2972 33.5611 15.4313 34.2478 14.3322L35.0364 13.0703L28.9508 9.26764L29.5358 8.33139L39.7327 14.7031C39.9091 14.8134 40.0109 14.9524 40.0381 15.1203C40.0788 15.2967 40.0483 15.4663 39.9465 15.6291L39.1326 16.9317C38.5899 17.8001 37.9786 18.5218 37.2985 19.0968L39.802 20.6612L42.4601 16.4074L46.9581 19.2181L41.0315 28.7026L36.5334 25.8919L39.0898 21.8009L36.1182 19.9441C35.0701 20.5344 33.9695 20.8466 32.8162 20.8806C31.685 20.9095 30.5512 20.7765 29.4148 20.4815C28.2921 20.195 27.2125 19.794 26.1762 19.2785C25.1399 18.763 24.2147 18.2509 23.4006 17.7422L23.8711 16.9891ZM23.1259 18.8158L27.624 21.6265L26.7083 23.0919L29.5453 27.8362L35.0327 28.2936L35.9484 26.8282L40.4465 29.6389L36.2749 36.3147L31.7769 33.504L28.9602 28.7724L23.4524 28.3023L18.9544 25.4916L23.1259 18.8158ZM28.3369 27.732L26.1232 24.0282L24.0375 27.3661L28.3369 27.732ZM32.3746 32.5474L34.435 29.2502L30.1686 28.8766L32.3746 32.5474Z" fill="white"/>
<path d="M50.4627 43.8784C50.1829 43.8733 49.8683 43.8182 49.5189 43.7131C49.1746 43.6301 48.8091 43.5054 48.4224 43.3393C48.0408 43.1951 47.6447 43.0137 47.2343 42.795C46.8153 42.5898 46.4091 42.3642 46.0156 42.1184L40.6424 38.7608C39.964 38.3369 39.5484 37.7942 39.3957 37.1328C39.243 36.4713 39.3786 35.8014 39.8025 35.123L48.9595 20.4687L59.0751 26.7896L58.49 27.7258L52.8726 24.2156L43.83 38.6867C43.7283 38.8495 43.6952 39.0081 43.7309 39.1625C43.7716 39.3388 43.8733 39.4779 44.0362 39.5796L46.7431 41.2711C47.5166 41.7544 48.2985 42.1487 49.0888 42.4539C49.8707 42.7727 50.5237 42.9354 51.0477 42.9422L60.5609 27.718L65.0589 30.5287L60.5185 37.7948L62.2893 38.9012L61.5771 40.041L59.8063 38.9345L54.3757 47.6253L49.8777 44.8146L50.4627 43.8784Z" fill="white"/>
</svg>
