<svg width="60" height="60" viewBox="0 0 60 60" fill="none" xmlns="http://www.w3.org/2000/svg">
<path d="M10.5792 26.5558C10.9297 26.7749 11.3347 26.8942 11.794 26.914C12.2646 26.9408 12.7487 26.8581 13.2462 26.6658C13.7507 26.4622 14.2538 26.1477 14.7555 25.7223C15.2572 25.2968 15.72 24.7449 16.144 24.0664L20.5953 16.9428L17.7967 15.1941L18.2842 14.4139L21.0828 16.1626L21.9625 14.7549L25.6939 17.0865L24.8142 18.4943L27.5449 20.2006L27.0574 20.9808L24.1062 19.1367L19.6549 26.2603C19.1744 27.0292 18.5738 27.6129 17.853 28.0116C17.1323 28.4102 16.3437 28.6406 15.4872 28.7029C14.6491 28.7609 13.7728 28.6536 12.8584 28.3809C11.9482 28.1266 11.0577 27.7274 10.1871 27.1834L10.5792 26.5558ZM29.0649 19.6175L32.8133 21.9597L29.0297 28.0148L30.5053 28.9368L29.9118 29.8866L28.4361 28.9646L23.9106 36.2069L20.1623 33.8647L29.0649 19.6175ZM17.5034 29.326C17.8284 28.8059 18.2481 28.4864 18.7626 28.3676C19.2954 28.2446 19.8218 28.3456 20.342 28.6707C20.8621 28.9957 21.178 29.4211 21.2897 29.9468C21.4198 30.4683 21.3223 30.9891 20.9973 31.5093C20.6723 32.0294 20.2469 32.3453 19.7212 32.457C19.1997 32.5871 18.6788 32.4896 18.1587 32.1646C17.6386 31.8396 17.317 31.4107 17.194 30.8779C17.0752 30.3634 17.1783 29.8461 17.5034 29.326Z" fill="white"/>
<path d="M30.047 31.8342L35.4236 35.1939L35.9641 34.3289L32.1648 31.9549C31.7352 31.6864 31.4645 31.3521 31.3528 30.9522C31.2595 30.548 31.3153 30.1819 31.5202 29.854C31.7463 29.4922 32.0543 29.2759 32.4444 29.2052C32.8529 29.1303 33.2719 29.227 33.7016 29.4955L42.7588 35.1551L43.3099 34.2731L34.2527 28.6136C33.823 28.3451 33.5524 28.0108 33.4407 27.6109C33.3403 27.218 33.3996 26.8463 33.6186 26.4957C33.8447 26.1339 34.1493 25.9233 34.5323 25.8639C34.9266 25.8116 35.3386 25.9196 35.7683 26.1881L44.8254 31.8477L45.3978 30.9318L35.0855 24.488L35.573 23.7078L48.2089 31.6036C48.6386 31.872 48.9128 32.2006 49.0316 32.5893C49.1503 32.9779 49.1002 33.3475 48.8812 33.698C48.6551 34.0599 48.3343 34.2839 47.9188 34.3702C47.5103 34.4451 47.0913 34.3483 46.6616 34.0799L37.6214 28.4309L37.0809 29.2959L46.1211 34.9449C46.5507 35.2134 46.8249 35.5419 46.9437 35.9306C47.0695 36.3079 47.0229 36.6719 46.8039 37.0224C46.5778 37.3842 46.2605 37.6026 45.8521 37.6776C45.4436 37.7525 45.0246 37.6557 44.5949 37.3872L35.5547 31.7383L34.993 32.6372L45.4579 39.1764L44.9704 39.9566L39.8651 36.7665L39.526 37.3093C39.3917 37.5241 39.4264 37.6951 39.6299 37.8223L44.7012 40.9912L44.2137 41.7714L29.5594 32.6144L30.047 31.8342ZM27.8786 35.6441C28.1117 35.2709 28.4332 35.008 28.8431 34.8553C29.2529 34.7026 29.7949 34.7033 30.4691 34.8573C31.1504 35 31.9807 35.3066 32.9602 35.7771C33.9397 36.2477 35.1248 36.9175 36.5156 37.7866C37.9064 38.6556 39.028 39.4272 39.8803 40.1013C40.7326 40.7754 41.3722 41.3873 41.799 41.937C42.233 42.4755 42.4712 42.9623 42.5136 43.3976C42.5561 43.8329 42.4607 44.2371 42.2275 44.6103C41.9944 44.9834 41.6764 45.2407 41.2736 45.3821C40.8638 45.5347 40.3182 45.5397 39.637 45.3971C38.9557 45.2544 38.1254 44.9478 37.1459 44.4772C36.1664 44.0067 34.9813 43.3369 33.5905 42.4678C32.1997 41.5987 31.0781 40.8271 30.2258 40.1531C29.3735 39.479 28.7339 38.8671 28.307 38.3173C27.8802 37.7676 27.6455 37.2751 27.6031 36.8398C27.5536 36.4158 27.6454 36.0172 27.8786 35.6441ZM31.6269 37.9863C31.4715 38.2351 31.3902 38.4909 31.3832 38.7538C31.3762 39.0166 31.4659 39.3007 31.6525 39.606C31.8391 39.9112 32.126 40.232 32.5133 40.5684C32.9119 40.9118 33.4335 41.2848 34.078 41.6876C34.7225 42.0903 35.2808 42.392 35.7529 42.5927C36.2363 42.8004 36.656 42.9212 37.0122 42.9551C37.3683 42.9889 37.663 42.9451 37.8962 42.8235C38.1294 42.702 38.3237 42.5168 38.4792 42.268C38.6346 42.0193 38.7158 41.7635 38.7229 41.5006C38.7299 41.2377 38.6402 40.9536 38.4536 40.6484C38.267 40.3431 37.9744 40.0188 37.5758 39.6754C37.1885 39.339 36.6726 38.9695 36.0281 38.5668C35.3836 38.164 34.8196 37.8588 34.3363 37.6511C33.8642 37.4504 33.4501 37.3332 33.0939 37.2993C32.7377 37.2654 32.4431 37.3092 32.2099 37.4308C31.9767 37.5524 31.7824 37.7375 31.6269 37.9863Z" fill="white"/>
</svg>
