<svg width="60" height="60" viewBox="0 0 60 60" fill="none" xmlns="http://www.w3.org/2000/svg">
<path d="M33.1624 21.8497L24.1114 36.3343L21.4316 34.6598L25.4589 28.2146L24.2547 27.4621L20.3863 33.6529L17.7404 31.9995L26.59 17.8371L29.236 19.4905L25.9505 24.7484L27.1547 25.5009L30.4826 20.1751L33.1624 21.8497ZM15.5202 26.5323C16.1082 26.8997 16.7322 27.2346 17.3923 27.537C18.0707 27.8351 18.6742 28.0393 19.2028 28.1495L17.6555 30.6258C17.1424 30.541 16.5184 30.3319 15.7834 29.9984C15.0485 29.665 14.3531 29.2933 13.6973 28.8835L10.3729 26.8062L18.788 13.3392L25.1145 17.2924L23.5459 19.8026L19.9841 17.577L14.7061 26.0235L15.5202 26.5323Z" fill="white"/>
<path d="M46.9149 38.1078L45.2188 37.048L43.1309 40.3893L40.2645 38.5982L45.7969 29.7445L48.6633 31.5357L46.9569 34.2664L48.653 35.3262L46.9149 38.1078ZM39.0263 37.0698L30.1896 31.548L35.2768 23.4067L38.0754 25.1555L36.9838 26.9025L40.2233 28.9267L41.315 27.1798L44.1135 28.9285L39.0263 37.0698ZM37.6797 32.9974L38.8031 31.1995L35.5636 29.1752L34.4402 30.9731L37.6797 32.9974ZM29.9565 32.8645L42.813 40.8981L39.5063 46.1899L36.589 44.367L38.3801 41.5006L28.441 35.29L29.9565 32.8645Z" fill="white"/>
</svg>
