<svg width="60" height="60" viewBox="0 0 60 60" fill="none" xmlns="http://www.w3.org/2000/svg">
<path d="M14.5365 26.5258L13.9155 27.5196L22.9923 33.1914L23.6133 32.1976L14.5365 26.5258ZM11.1765 27.996L14.2815 23.027L16.0372 24.1241L15.5197 24.9523L24.5965 30.6241L25.114 29.7959L26.8697 30.893L23.7647 35.862L11.1765 27.996ZM31.6353 27.8368C31.4283 28.168 31.1419 28.3806 30.7762 28.4745C30.4104 28.5684 30.0509 28.5049 29.6975 28.2841C29.3442 28.0633 29.1295 27.768 29.0536 27.3981C28.9776 27.0282 29.0432 26.6776 29.2502 26.3464C29.4572 26.0151 29.7435 25.8025 30.1093 25.7086C30.475 25.6147 30.8346 25.6782 31.1879 25.899C31.5413 26.1198 31.7559 26.4151 31.8319 26.785C31.9078 27.1549 31.8423 27.5055 31.6353 27.8368ZM26.3934 29.4438L24.6377 28.3467L29.1917 21.0588L30.9474 22.1559L26.3934 29.4438ZM23.2269 18.368L26.5064 20.4173L25.4714 22.0736L17.1897 16.8986L18.2247 15.2423L21.4712 17.2709L22.2474 16.0286L24.0031 17.1257L23.2269 18.368ZM18.9501 23.2957C19.2814 23.5027 19.6278 23.6117 19.9894 23.6227C20.3621 23.6406 20.6554 23.4784 20.8693 23.1361C21.0694 22.8159 21.0797 22.4922 20.9002 22.1651C20.7387 21.8339 20.4923 21.5648 20.161 21.3578C19.8298 21.1508 19.4744 21.0438 19.0948 21.037C18.7332 21.026 18.4523 21.1806 18.2522 21.5008C18.0383 21.8431 18.0156 22.1744 18.184 22.4946C18.3635 22.8216 18.6188 23.0887 18.9501 23.2957ZM16.5897 20.4389C16.8036 20.0966 17.0699 19.8177 17.3887 19.6024C17.7144 19.376 18.0733 19.2318 18.4653 19.1696C18.8572 19.1075 19.2768 19.124 19.724 19.2192C20.1822 19.3213 20.6488 19.5207 21.1236 19.8174C21.5984 20.1141 21.9766 20.4425 22.2582 20.8027C22.5508 21.1698 22.7552 21.5432 22.8711 21.9227C22.9871 22.3023 23.0147 22.688 22.954 23.08C22.9003 23.4609 22.7664 23.8226 22.5525 24.1649C22.3386 24.5072 22.0688 24.7915 21.7431 25.0179C21.4243 25.2333 21.0689 25.372 20.6769 25.4342C20.285 25.4963 19.8599 25.4763 19.4016 25.3742C18.9544 25.279 18.4934 25.0831 18.0186 24.7864C17.5438 24.4897 17.16 24.1578 16.8674 23.7907C16.5858 23.4305 16.387 23.0606 16.2711 22.6811C16.1551 22.3015 16.124 21.9213 16.1778 21.5403C16.2385 21.1483 16.3758 20.7812 16.5897 20.4389Z" fill="white"/>
<path d="M43.7519 40.2906L41.9962 39.1935L46.5502 31.9056L48.3059 33.0027L43.7519 40.2906ZM43.2966 41.3879L40.2951 46.1913L38.5393 45.0942L40.5058 41.9471L29.6733 35.1783L30.7083 33.5219L43.2966 41.3879ZM42.2603 30.1462L38.3273 36.4403L36.5716 35.3432L39.4696 30.7055L33.7718 27.1451L34.8068 25.4887L42.2603 30.1462ZM44.538 33.8726C44.331 34.2038 44.0536 34.4143 43.7058 34.5041C43.358 34.5938 43.0074 34.5283 42.6541 34.3075C42.3007 34.0867 42.0882 33.8003 42.0164 33.4484C41.9445 33.0964 42.0121 32.7548 42.2191 32.4236C42.4261 32.0923 42.7035 31.8818 43.0514 31.792C43.3992 31.7023 43.7497 31.7678 44.1031 31.9886C44.4564 32.2094 44.669 32.4958 44.7408 32.8477C44.8126 33.1997 44.745 33.5413 44.538 33.8726ZM42.5715 37.0196C42.3645 37.3509 42.0871 37.5614 41.7393 37.6511C41.3915 37.7409 41.0409 37.6754 40.6876 37.4546C40.3342 37.2338 40.1217 36.9474 40.0499 36.5954C39.9781 36.2435 40.0457 35.9019 40.2526 35.5706C40.4596 35.2393 40.7371 35.0288 41.0849 34.9391C41.4327 34.8493 41.7832 34.9149 42.1366 35.1357C42.4899 35.3565 42.7025 35.6428 42.7743 35.9948C42.8461 36.3467 42.7785 36.6883 42.5715 37.0196Z" fill="white"/>
</svg>
