<svg width="60" height="60" viewBox="0 0 60 60" fill="none" xmlns="http://www.w3.org/2000/svg">
<path d="M10.7801 27.7673C11.5672 26.8598 12.3197 25.9701 13.0376 25.098C13.7555 24.2259 14.4564 23.3432 15.1404 22.4499C15.8244 21.5566 16.4984 20.6414 17.1626 19.7043C17.8381 18.7743 18.5192 17.7849 19.206 16.7361L17.6795 15.7823L19.3223 13.1533L24.2409 16.2269C23.4058 17.5131 22.5911 18.7413 21.7969 19.9116C21.0098 21.0706 20.2107 22.1986 19.3995 23.2954C18.5997 24.3993 17.7681 25.4911 16.9046 26.571C16.0525 27.6579 15.1417 28.7632 14.1722 29.8869L10.7801 27.7673ZM15.7835 30.8938C16.5481 29.9722 17.2836 29.0719 17.9902 28.1927C18.7081 27.3206 19.409 26.4379 20.093 25.5446C20.7883 24.6584 21.468 23.7467 22.1322 22.8096C22.7963 21.8725 23.4605 20.8725 24.1247 19.8097L23.0222 19.1208L24.665 16.4918L29.1596 19.3004C28.3471 20.6007 27.5437 21.8361 26.7495 23.0064C25.9624 24.1654 25.1689 25.2968 24.3691 26.4007C23.5693 27.5046 22.7376 28.5965 21.8742 29.6763C21.022 30.7633 20.1226 31.8756 19.1757 33.0135L15.7835 30.8938ZM29.7533 19.6713L32.9758 21.685L29.8069 26.7563L31.3334 27.7102L29.5317 30.5936L28.0052 29.6397L24.0096 36.034L20.787 34.0203L29.7533 19.6713Z" fill="white"/>
<path d="M31.7628 28.5209L34.2221 30.0577C34.7097 29.7806 35.1711 29.4322 35.6064 29.0124C36.06 28.5884 36.4543 28.1587 36.7892 27.7233L33.5327 25.6884L35.1755 23.0595L41.9429 27.2883C41.3098 28.2762 40.623 29.1992 39.8825 30.0572C39.142 30.9151 38.3859 31.6219 37.6143 32.1774L41.5323 34.6256C42.0199 34.3485 42.4813 34.0001 42.9166 33.5803C43.3702 33.1563 43.7645 32.7266 44.0994 32.2912L40.7242 30.1822L42.3669 27.5532L49.2531 31.8562C48.62 32.8441 47.9332 33.7671 47.1927 34.6251C46.4522 35.483 45.6961 36.1898 44.9245 36.7453L45.8404 37.3176L44.1976 39.9465L38.9397 36.661L38.4204 37.4921L40.761 38.9547C41.79 39.5977 42.4098 40.2916 42.6205 41.0364C42.8382 41.7699 42.6538 42.6059 42.0674 43.5444C41.4809 44.4829 40.8104 45.0151 40.0557 45.1409C39.2939 45.2781 38.3985 45.0252 37.3695 44.3822L29.1265 39.2314C28.0976 38.5884 27.4777 37.8945 27.2671 37.1497C27.0494 36.4162 27.2337 35.5802 27.8202 34.6417C28.4066 33.7032 29.0772 33.171 29.8319 33.0452C30.5937 32.908 31.489 33.1609 32.518 33.8039L34.8586 35.2665L35.3779 34.4354L30.12 31.1499L31.7628 28.5209ZM33.3646 41.6202C33.8875 40.7835 34.8075 40.4937 36.1248 40.7508C37.4604 41.0036 39.2038 41.7865 41.355 43.0992C39.2321 41.7412 37.7607 40.5231 36.9408 39.4448C36.1323 38.3736 35.993 37.4139 36.5229 36.5659C35.993 37.4139 35.0638 37.7059 33.7352 37.4417C32.4067 37.1775 30.6668 36.389 28.5156 35.0763C30.6385 36.4343 32.1064 37.6581 32.9191 38.7477C33.739 39.826 33.8875 40.7835 33.3646 41.6202Z" fill="white"/>
</svg>
