<svg width="60" height="60" viewBox="0 0 60 60" fill="none" xmlns="http://www.w3.org/2000/svg">
<path d="M22.0752 26.6855L23.665 24.1413L28.2444 27.0029L28.5306 26.5449L25.4098 24.5948C24.9009 24.2769 24.5985 23.9306 24.5023 23.5561C24.4246 23.1773 24.5446 22.7335 24.8626 22.2247L27.2366 18.4255L34.1567 22.7496L32.6835 25.1072L30.1903 23.5492L29.9147 23.9902L32.9507 25.8873L34.6995 23.0888L41.6195 27.4129L40.1464 29.7705L37.6531 28.2125L37.3775 28.6535L39.8708 30.2115L38.334 32.6708L33.7546 29.8092L33.4684 30.2672L38.0479 33.1287L36.4581 35.6729L22.0752 26.6855ZM19.9725 29.7109C20.6154 28.6819 21.6634 28.3384 23.1163 28.6803C24.5763 29.0109 26.5558 29.9569 29.0547 31.5184C30.2985 32.2956 31.3466 33.0212 32.1989 33.6953C33.0695 34.3652 33.7339 35.0004 34.1918 35.601C34.6682 36.1974 34.9403 36.7684 35.0082 37.3139C35.0945 37.8552 34.9786 38.3803 34.6607 38.8891C34.3427 39.3979 33.9216 39.7322 33.3972 39.892C32.8771 40.0701 32.2447 40.0758 31.4998 39.9091C30.7592 39.7608 29.8971 39.4421 28.9134 38.9532C27.9339 38.4827 26.8222 37.8588 25.5784 37.0816C23.0795 35.5201 21.3615 34.1557 20.4243 32.9884C19.4801 31.8323 19.3295 30.7399 19.9725 29.7109ZM25.3978 32.8416C25.9265 33.4549 26.5244 34.0329 27.1915 34.5756C27.8657 35.1069 28.5251 35.574 29.1696 35.9767L29.4875 35.4679C28.843 35.0652 28.2155 34.6101 27.6049 34.1028C27.0013 33.5842 26.4338 33.033 25.9024 32.4494L25.3978 32.8416Z" fill="white"/>
</svg>
