<svg width="60" height="60" viewBox="0 0 60 60" fill="none" xmlns="http://www.w3.org/2000/svg">
<path d="M11.9114 27.1885L14.1884 23.5446L15.4141 24.3105L13.8616 26.795L24.6941 33.5639L23.9696 34.7233L11.9114 27.1885ZM14.1882 21.702L14.9127 20.5426L28.6273 29.1123L27.9028 30.2718L14.1882 21.702ZM21.7201 22.9538C21.8788 22.6999 22.0893 22.5473 22.3515 22.4962C22.6138 22.4451 22.8719 22.4989 23.1258 22.6576C23.3798 22.8163 23.5413 23.0247 23.6104 23.2828C23.6794 23.5409 23.6346 23.797 23.4759 24.0509C23.3172 24.3049 23.1067 24.4574 22.8445 24.5085C22.5822 24.5596 22.3241 24.5058 22.0701 24.3471C21.8162 24.1884 21.6547 23.98 21.5856 23.7219C21.5166 23.4638 21.5614 23.2078 21.7201 22.9538ZM30.2933 23.3133L25.0593 20.0427L29.0328 26.1414L27.7741 26.6446L24.1608 21.0013L17.5213 20.238L17.4218 18.8861L24.6286 19.7736L19.3946 16.503L20.0984 15.3767L30.9971 22.1869L30.2933 23.3133Z" fill="white"/>
<path d="M33.9467 37.8485C33.7811 38.1136 33.6776 38.402 33.6362 38.714C33.6128 39.0218 33.6508 39.3295 33.7502 39.6373C33.8386 39.9382 33.9842 40.2211 34.1871 40.4861C34.3942 40.769 34.6578 41.0105 34.978 41.2106C35.2872 41.4038 35.6143 41.5315 35.9594 41.5935C36.2976 41.6667 36.6267 41.6804 36.9469 41.6349C37.2561 41.5824 37.5383 41.4747 37.7937 41.3118C38.0669 41.1448 38.2864 40.9288 38.452 40.6637C38.6176 40.3987 38.7121 40.1123 38.7355 39.8045C38.7769 39.4926 38.7534 39.1862 38.665 38.8853C38.5656 38.5776 38.409 38.2877 38.195 38.0158C37.9879 37.7329 37.7298 37.4949 37.4206 37.3017C37.1004 37.1016 36.7678 36.9705 36.4227 36.9084C36.0956 36.8422 35.7775 36.8353 35.4683 36.8878C35.1481 36.9334 34.8514 37.0397 34.5781 37.2067C34.3228 37.3696 34.1123 37.5835 33.9467 37.8485ZM32.721 37.0826C33.0108 36.6189 33.3613 36.2545 33.7726 35.9894C34.1839 35.7244 34.6325 35.5594 35.1183 35.4945C35.5931 35.4227 36.0851 35.4461 36.5944 35.5647C37.1106 35.6724 37.6172 35.8814 38.1141 36.1919C38.611 36.5024 39.0209 36.8661 39.3439 37.2828C39.6739 37.6886 39.9161 38.124 40.0707 38.5891C40.2143 39.0474 40.2572 39.5194 40.1992 40.0052C40.1413 40.4911 39.9675 40.9659 39.6777 41.4296C39.3879 41.8934 39.0373 42.2578 38.626 42.5229C38.2148 42.7879 37.7717 42.9563 37.297 43.0281C36.8111 43.0931 36.3136 43.0662 35.8043 42.9475C35.288 42.8399 34.7815 42.6309 34.2846 42.3204C33.7877 42.0099 33.3777 41.6462 33.0547 41.2294C32.7248 40.8237 32.4881 40.3917 32.3445 39.9335C32.1899 39.4684 32.1415 38.9929 32.1994 38.5071C32.2573 38.0212 32.4312 37.5464 32.721 37.0826ZM43.284 40.2285L42.0583 39.4626L47.0263 31.5122L48.252 32.2781L43.284 40.2285ZM42.1029 29.5873L38.6874 35.0532L37.4618 34.2873L40.1734 29.9477L34.4756 26.3873L35.1794 25.261L42.1029 29.5873ZM44.6559 32.9099C44.4972 33.1638 44.2744 33.324 43.9873 33.3902C43.7112 33.4634 43.4407 33.4172 43.1757 33.2516C42.9107 33.086 42.745 32.8597 42.6788 32.5726C42.6235 32.2924 42.6753 32.0253 42.834 31.7714C42.9927 31.5174 43.21 31.3538 43.4861 31.2806C43.7731 31.2144 44.0492 31.264 44.3142 31.4296C44.5792 31.5952 44.7393 31.8181 44.7946 32.0983C44.8609 32.3854 44.8146 32.6559 44.6559 32.9099ZM42.7929 35.8913C42.6342 36.1452 42.4114 36.3054 42.1243 36.3717C41.8482 36.4448 41.5777 36.3986 41.3127 36.233C41.0477 36.0674 40.882 35.8411 40.8158 35.554C40.7605 35.2738 40.8123 35.0068 40.971 34.7528C41.1297 34.4988 41.347 34.3352 41.6231 34.2621C41.9101 34.1958 42.1862 34.2454 42.4512 34.411C42.7162 34.5766 42.8763 34.7995 42.9316 35.0797C42.9979 35.3668 42.9516 35.6373 42.7929 35.8913Z" fill="white"/>
</svg>
