<svg width="60" height="60" viewBox="0 0 60 60" fill="none" xmlns="http://www.w3.org/2000/svg">
<path d="M25.9109 27.6147L24.1552 26.5176L28.5022 19.5609L30.2579 20.658L25.9109 27.6147ZM10.6527 26.6016L13.8612 21.467L26.4494 29.333L23.2409 34.4676L10.6527 26.6016ZM14.5819 24.2204L13.4434 26.0424L22.5201 31.7142L23.6586 29.8922L14.5819 24.2204ZM31.0493 26.1732C30.8423 26.5045 30.5559 26.7171 30.1902 26.811C29.8244 26.9049 29.4649 26.8414 29.1115 26.6206C28.7582 26.3998 28.5435 26.1045 28.4676 25.7346C28.3916 25.3647 28.4572 25.0141 28.6642 24.6828C28.8712 24.3516 29.1575 24.139 29.5233 24.0451C29.889 23.9512 30.2486 24.0147 30.6019 24.2355C30.9553 24.4563 31.1699 24.7516 31.2459 25.1215C31.3218 25.4914 31.2563 25.842 31.0493 26.1732ZM25.0405 18.3191L21.3145 24.2819L19.5588 23.1848L22.2498 18.8783L16.552 15.3179L17.587 13.6616L25.0405 18.3191Z" fill="white"/>
<path d="M38.9844 43.8446L37.2287 42.7476L44.9911 30.325L46.7469 31.4221L38.9844 43.8446ZM46.3997 38.7593C46.1927 39.0905 45.9064 39.3031 45.5406 39.397C45.1749 39.4909 44.8153 39.4274 44.462 39.2066C44.1086 38.9858 43.894 38.6905 43.818 38.3206C43.7421 37.9507 43.8076 37.6001 44.0146 37.2689C44.2216 36.9376 44.508 36.725 44.8737 36.6311C45.2395 36.5373 45.599 36.6007 45.9524 36.8215C46.3057 37.0423 46.5204 37.3376 46.5963 37.7075C46.6723 38.0774 46.6067 38.428 46.3997 38.7593ZM38.1133 27.1787L37.4312 38.9589L35.3195 39.0212L35.9398 30.6571L28.8597 34.9847L27.99 33.0594L38.1133 27.1787Z" fill="white"/>
</svg>
