<svg width="34" height="36" viewBox="0 0 34 36" fill="none" xmlns="http://www.w3.org/2000/svg">
<g filter="url(#filter0_d_1363_8869)">
<path d="M15 3.13908C16.2376 2.42454 17.7624 2.42454 19 3.13908L27.1244 7.82967C28.362 8.54421 29.1244 9.86471 29.1244 11.2938V20.675C29.1244 22.104 28.362 23.4245 27.1244 24.1391L19 28.8297C17.7624 29.5442 16.2376 29.5442 15 28.8297L6.87564 24.1391C5.63804 23.4245 4.87564 22.104 4.87564 20.675V11.2938C4.87564 9.86471 5.63804 8.54421 6.87564 7.82967L15 3.13908Z" fill="#1A2A53"/>
</g>
<mask id="mask0_1363_8869" style="mask-type:alpha" maskUnits="userSpaceOnUse" x="4" y="2" width="26" height="28">
<path d="M15 3.13908C16.2376 2.42454 17.7624 2.42454 19 3.13908L27.1244 7.82967C28.362 8.54421 29.1244 9.86471 29.1244 11.2938V20.675C29.1244 22.104 28.362 23.4245 27.1244 24.1391L19 28.8297C17.7624 29.5442 16.2376 29.5442 15 28.8297L6.87564 24.1391C5.63804 23.4245 4.87564 22.104 4.87564 20.675V11.2938C4.87564 9.86471 5.63804 8.54421 6.87564 7.82967L15 3.13908Z" fill="#1A2A53"/>
</mask>
<g mask="url(#mask0_1363_8869)">
<path d="M17.625 24.4853C19.063 24.4853 20.5234 24.1236 22.0328 23.3985C24.3303 22.2943 26.4564 20.4819 28.3321 18.8822C29.4119 17.9613 30.735 17.6568 32.2647 17.9771C33.445 18.2242 34.3117 18.7671 34.32 18.7726C34.4946 18.8833 34.7237 18.8577 34.8692 18.7115C35.0148 18.5652 35.0378 18.3377 34.9241 18.1659C34.0025 16.7697 32.1202 15.0615 29.8491 14.8428C28.086 14.6731 26.3927 15.3992 24.8158 17.0022C22.8429 19.0077 21.0051 19.7982 19.811 20.1087C18.5225 20.4437 17.6844 20.3062 17.6761 20.3045C17.6629 20.3024 17.6476 20.3002 17.6344 20.2991C15.5813 20.137 14.507 18.3972 14.507 16.7626C14.507 15.0495 15.9097 13.6561 17.6344 13.6561C19.0185 13.6561 20.2202 14.5383 20.6256 15.8515C20.9414 16.8505 20.4685 17.419 20.0159 17.7207C19.2975 18.1997 18.6082 18.0688 18.5791 18.0633C18.5703 18.0611 18.5648 18.0606 18.556 18.0589C17.987 17.9716 17.7843 17.6378 17.7843 17.3541C17.7843 16.9683 18.1001 16.6546 18.4885 16.6546C18.7312 16.6546 18.9279 16.4593 18.9279 16.2182C18.9279 15.977 18.7312 15.7817 18.4885 15.7817C17.6157 15.7817 16.9055 16.4871 16.9055 17.3541C16.9055 18.0164 17.3718 18.7562 18.4127 18.9199C18.5593 18.9477 19.5271 19.0977 20.5058 18.4452C21.4824 17.7943 21.8323 16.7545 21.4648 15.5929C21.2199 14.7986 20.7129 14.0822 20.0384 13.5792C19.3409 13.0587 18.5093 12.7832 17.6344 12.7832C15.4253 12.7832 13.6282 14.5683 13.6282 16.7626C13.6282 17.8483 14.0011 18.8909 14.6789 19.6973C15.3967 20.5517 16.4139 21.0733 17.5454 21.1676C17.9024 21.2244 21.4571 21.6658 25.4447 17.6121C26.8266 16.2078 28.2804 15.5678 29.7645 15.7113C31.0091 15.8313 32.1274 16.4828 32.9869 17.258C32.8244 17.2111 32.6536 17.1675 32.4756 17.1293C30.6785 16.7452 29.0477 17.1222 27.7598 18.2199C24.0243 21.4044 19.7913 25.014 14.6986 23.0482C11.2466 21.7159 10.9599 17.9356 11.1401 16.5913C11.1719 16.3524 11.0033 16.1331 10.7627 16.1009C10.5216 16.0687 10.3014 16.2367 10.269 16.4757C10.1465 17.3862 10.2212 18.8664 10.7979 20.2898C11.4855 21.9876 12.7241 23.2228 14.3801 23.8617C15.4566 24.2769 16.5342 24.4853 17.625 24.4853Z" fill="#D0D7E8"/>
<path d="M17.5311 13.6554C17.9353 13.6554 18.5669 13.5703 19.203 13.1464C20.1795 12.4955 20.5294 11.4556 20.162 10.2941C19.917 9.49974 19.41 8.7834 18.7356 8.28037C18.038 7.75935 17.207 7.48438 16.3321 7.48438C14.123 7.48438 12.3253 9.26951 12.3253 11.4644C12.3253 11.6406 12.3368 11.8184 12.3604 11.9919C12.3923 12.2309 12.6131 12.3989 12.8537 12.3673C13.0942 12.3357 13.2634 12.1163 13.2316 11.8774C13.2134 11.7415 13.2041 11.6024 13.2041 11.4644C13.2041 9.75125 14.6074 8.3573 16.3321 8.3573C17.7162 8.3573 18.9179 9.2395 19.3233 10.5527C19.6391 11.5517 19.1662 12.1201 18.7136 12.4219C17.9952 12.9009 17.3059 12.7699 17.2768 12.7639C17.268 12.7617 17.2625 12.7612 17.2537 12.7596C16.6847 12.6723 16.482 12.3384 16.482 12.0547C16.482 11.669 16.7978 11.3552 17.1861 11.3552C17.4289 11.3552 17.6255 11.1599 17.6255 10.9188C17.6255 10.6776 17.4289 10.4823 17.1861 10.4823C16.3134 10.4823 15.6032 11.1878 15.6032 12.0547C15.6032 12.717 16.0695 13.4568 17.1098 13.6205C17.1609 13.6309 17.313 13.6554 17.5311 13.6554Z" fill="#D0D7E8"/>
<path d="M9.77079 17.2023C9.98884 17.2023 10.141 17.1777 10.1921 17.1679C11.2329 17.0042 11.6992 16.2639 11.6992 15.6016C11.6992 14.7346 10.989 14.0292 10.1157 14.0292C9.87295 14.0292 9.67632 14.2245 9.67632 14.4657C9.67632 14.7068 9.87295 14.9021 10.1157 14.9021C10.504 14.9021 10.8204 15.2158 10.8204 15.6016C10.8204 15.8847 10.6177 16.2191 10.0487 16.3064C10.0399 16.3081 10.0306 16.3097 10.0218 16.3114C9.99653 16.3163 9.30668 16.4472 8.58826 15.9682C8.13623 15.6665 7.66278 15.0985 7.97805 14.1023C8.38394 12.7864 9.5857 11.9042 10.9698 11.9042C12.6944 11.9042 14.0978 13.2976 14.0978 15.0107C14.0978 15.2518 14.2944 15.4472 14.5372 15.4472C14.7799 15.4472 14.9766 15.2518 14.9766 15.0107C14.9766 12.8164 13.1794 11.0312 10.9698 11.0312C10.0948 11.0312 9.26384 11.3062 8.56574 11.8272C7.89127 12.3303 7.38431 13.0466 7.13825 13.8442C6.7719 15.0031 7.12177 16.0429 8.09833 16.6938C8.73491 17.1172 9.366 17.2023 9.77079 17.2023Z" fill="#D0D7E8"/>
<path d="M34.5573 18.8386C34.6216 18.8386 34.6869 18.8244 34.7485 18.7949C34.9665 18.6896 35.0577 18.4288 34.9522 18.2122C34.8671 18.0371 32.8228 13.9169 29.4411 13.2753C26.9014 12.7941 25.4415 13.6676 23.8953 14.5929C23.0473 15.1003 22.1707 15.6251 21.0326 15.989C20.8014 16.0627 20.6745 16.3087 20.7487 16.5384C20.8228 16.7681 21.0705 16.8941 21.3018 16.8205C22.5376 16.426 23.4999 15.8493 24.349 15.3409C25.8677 14.4319 27.0667 13.7139 29.2763 14.133C32.2225 14.6916 34.1426 18.5543 34.1619 18.5931C34.2377 18.748 34.3947 18.8386 34.5573 18.8386Z" fill="#D0D7E8"/>
</g>
<defs>
<filter id="filter0_d_1363_8869" x="0.875" y="0.603516" width="32.25" height="34.7617" filterUnits="userSpaceOnUse" color-interpolation-filters="sRGB">
<feFlood flood-opacity="0" result="BackgroundImageFix"/>
<feColorMatrix in="SourceAlpha" type="matrix" values="0 0 0 0 0 0 0 0 0 0 0 0 0 0 0 0 0 0 127 0" result="hardAlpha"/>
<feOffset dy="2"/>
<feGaussianBlur stdDeviation="2"/>
<feComposite in2="hardAlpha" operator="out"/>
<feColorMatrix type="matrix" values="0 0 0 0 0.614118 0 0 0 0 0.658342 0 0 0 0 0.771667 0 0 0 0.8 0"/>
<feBlend mode="normal" in2="BackgroundImageFix" result="effect1_dropShadow_1363_8869"/>
<feBlend mode="normal" in="SourceGraphic" in2="effect1_dropShadow_1363_8869" result="shape"/>
</filter>
</defs>
</svg>
