<svg width="50" height="50" viewBox="0 0 50 50" fill="none" xmlns="http://www.w3.org/2000/svg">
<path d="M50 25C50 38.8071 38.8071 50 25 50C11.1929 50 0 38.8071 0 25C0 11.1929 11.1929 0 25 0C38.8071 0 50 11.1929 50 25Z" fill="#FAE100"/>
<path d="M25.3424 14.6699C18.9562 14.6699 13.7812 18.7796 13.7812 23.8519C13.7812 27.1519 15.974 30.047 19.2655 31.6641C19.0242 32.5703 18.3893 34.9499 18.2628 35.4583C18.1059 36.0891 18.4924 36.0821 18.7454 35.9126C18.9445 35.7784 21.9127 33.7495 23.1942 32.8763C23.89 32.9798 24.6068 33.034 25.3401 33.034C31.7239 33.034 36.9012 28.9243 36.9012 23.8519C36.9012 18.7796 31.7262 14.6699 25.3424 14.6699Z" fill="#371D1E"/>
</svg>
