<svg width="16" height="16" viewBox="0 0 16 16" fill="none" xmlns="http://www.w3.org/2000/svg">
<g id="fluent:eye-12-filled">
<path id="Vector" d="M2.63202 8.87867C2.57233 9.04161 2.45146 9.17486 2.29509 9.25011C2.13873 9.32535 1.95918 9.33666 1.7946 9.28163C1.63003 9.2266 1.4934 9.10956 1.41374 8.95539C1.33409 8.80122 1.31768 8.62207 1.36802 8.456C1.39173 8.38259 1.41932 8.30915 1.45068 8.23867C1.50402 8.112 1.58268 7.93733 1.69068 7.73067C1.91068 7.31733 2.25335 6.76667 2.75868 6.216C3.77868 5.10267 5.44935 4 8.00002 4C10.5507 4 12.2213 5.10267 13.2414 6.216C13.7858 6.8133 14.2273 7.49681 14.548 8.23867L14.6094 8.38933C14.6133 8.4 14.6267 8.46933 14.64 8.536L14.6667 8.66667C14.6667 8.66667 14.7787 9.11067 14.2107 9.29867C14.0434 9.35453 13.8608 9.34183 13.7029 9.26337C13.5449 9.1849 13.4245 9.04705 13.368 8.88V8.876L13.36 8.85467C13.293 8.68339 13.2165 8.51601 13.1307 8.35333C12.8936 7.90602 12.6006 7.49069 12.2587 7.11733C11.4454 6.23067 10.116 5.33333 8.00002 5.33333C5.88402 5.33333 4.55468 6.23067 3.74135 7.11733C3.301 7.60009 2.94291 8.15188 2.68135 8.75067C2.66736 8.78508 2.65403 8.81975 2.64135 8.85467L2.63202 8.87867ZM5.33335 9.33333C5.33335 8.62609 5.6143 7.94781 6.1144 7.44772C6.6145 6.94762 7.29277 6.66667 8.00002 6.66667C8.70726 6.66667 9.38554 6.94762 9.88564 7.44772C10.3857 7.94781 10.6667 8.62609 10.6667 9.33333C10.6667 10.0406 10.3857 10.7189 9.88564 11.219C9.38554 11.719 8.70726 12 8.00002 12C7.29277 12 6.6145 11.719 6.1144 11.219C5.6143 10.7189 5.33335 10.0406 5.33335 9.33333Z" fill="#9E9E9E"/>
</g>
</svg>
