<svg width="20" height="20" viewBox="0 0 20 20" fill="none" xmlns="http://www.w3.org/2000/svg">
<g id="icons8:lock-2">
<path id="Vector" d="M10 1.875C7.59687 1.875 5.625 3.84687 5.625 6.25V8.04688C5.03168 8.62688 4.56019 9.31956 4.23821 10.0843C3.91623 10.849 3.75025 11.6703 3.75 12.5C3.75 15.9438 6.55625 18.75 10 18.75C13.4438 18.75 16.25 15.9438 16.25 12.5C16.2498 11.6703 16.0838 10.849 15.7618 10.0843C15.4398 9.31956 14.9683 8.62688 14.375 8.04688V6.25C14.375 3.84687 12.4031 1.875 10 1.875ZM10 3.125C11.7219 3.125 13.125 4.52812 13.125 6.25V7.10938C12.2031 6.57187 11.1412 6.25 10 6.25C8.85875 6.25 7.79688 6.5725 6.875 7.10938V6.25C6.875 4.52812 8.27812 3.125 10 3.125ZM10 7.5C12.7687 7.5 15 9.73125 15 12.5C15 15.2687 12.7687 17.5 10 17.5C7.23125 17.5 5 15.2687 5 12.5C5 9.73125 7.23125 7.5 10 7.5ZM10 11.25C9.66848 11.25 9.35054 11.3817 9.11612 11.6161C8.8817 11.8505 8.75 12.1685 8.75 12.5C8.75 12.9625 9.00187 13.3581 9.375 13.575V15.625H10.625V13.575C10.9981 13.3581 11.25 12.9625 11.25 12.5C11.25 12.1685 11.1183 11.8505 10.8839 11.6161C10.6495 11.3817 10.3315 11.25 10 11.25Z" fill="current"/>
</g>
</svg>
