<svg width="28" height="25" viewBox="0 0 28 25" fill="none" xmlns="http://www.w3.org/2000/svg">
<path d="M5.73758 6.9582C5.73568 7.07945 5.59961 8.26137 5.59961 8.26137L8.03931 8.14623C8.03931 8.14623 10.1117 6.04833 10.597 6.05342C13.9578 6.09316 12.7474 4.20515 12.7474 2.28453C12.7474 -1.96223 5.77279 4.71867 5.73663 6.95718L5.73758 6.9582Z" fill="#313132" stroke="#1A1818" stroke-linecap="round" stroke-linejoin="round"/>
<path d="M22.0602 6.93394C22.0622 7.03037 22.1081 7.41708 22.1588 7.86976C22.2429 8.62491 19.6819 8.0555 19.6819 8.0555C19.6819 8.0555 17.6525 6.02756 17.1753 6.03264C13.7976 6.07222 15.014 4.19145 15.014 2.27922C15.014 -1.95124 22.0239 4.70402 22.0602 6.93394Z" fill="#313132" stroke="#1A1818" stroke-linecap="round" stroke-linejoin="round"/>
<path d="M23.4447 12.6843C22.7149 6.86349 18.7704 2.74121 13.8793 2.74121C8.98814 2.74121 5.04369 6.86349 4.31384 12.6843L3.75977 21.1412L13.8573 18.0737L23.9998 21.1412L23.4457 12.6843H23.4447Z" fill="#313132" stroke="#1A1818" stroke-linecap="round" stroke-linejoin="round"/>
<path d="M14.8009 2.74121H12.9609V18.3812H14.8009V2.74121Z" fill="white"/>
<path d="M13.8809 2.74121V2.74121V18.3812V18.3812V2.74121Z" stroke="#1A1818" stroke-linecap="round" stroke-linejoin="round"/>
<path d="M26.76 23.9007H1C1 16.7441 4.55921 9.18066 13.9027 9.18066C23.2463 9.18066 26.76 16.7431 26.76 23.9007Z" fill="#313132" stroke="#1A1818" stroke-linecap="round" stroke-linejoin="round"/>
</svg>
