<svg width="20" height="20" viewBox="0 0 20 20" fill="none" xmlns="http://www.w3.org/2000/svg">
<g id="octicon:person-24">
<path id="Vector" d="M10.0001 2.08331C10.9802 2.08301 11.9346 2.39689 12.7232 2.97887C13.5117 3.56085 14.093 4.38029 14.3816 5.31691C14.6702 6.25354 14.651 7.25801 14.3268 8.18291C14.0026 9.10781 13.3904 9.90442 12.5801 10.4558C13.9865 10.9716 15.2063 11.8966 16.0826 13.1116C16.9588 14.3266 17.4513 15.776 17.4968 17.2733C17.501 17.3564 17.4886 17.4395 17.4603 17.5178C17.432 17.5961 17.3884 17.6679 17.332 17.729C17.2755 17.7902 17.2074 17.8395 17.1317 17.874C17.056 17.9085 16.9741 17.9275 16.8909 17.93C16.8078 17.9324 16.7249 17.9182 16.6473 17.8882C16.5697 17.8582 16.4988 17.813 16.4389 17.7553C16.379 17.6975 16.3312 17.6284 16.2983 17.5519C16.2655 17.4754 16.2483 17.3932 16.2476 17.31C16.198 15.6862 15.5181 14.1455 14.3519 13.0145C13.1858 11.8834 11.6251 11.2509 10.0005 11.2509C8.37599 11.2509 6.81528 11.8834 5.64914 13.0145C4.48301 14.1455 3.80308 15.6862 3.75346 17.31C3.74848 17.4757 3.67787 17.6327 3.55714 17.7464C3.43641 17.8601 3.27547 17.9212 3.10971 17.9162C2.94395 17.9113 2.78695 17.8406 2.67326 17.7199C2.55956 17.5992 2.49848 17.4382 2.50346 17.2725C2.54908 15.7753 3.0417 14.3261 3.91792 13.1112C4.79414 11.8964 6.01387 10.9716 7.42012 10.4558C6.60986 9.90442 5.99769 9.10781 5.67346 8.18291C5.34922 7.25801 5.33001 6.25354 5.61863 5.31691C5.90725 4.38029 6.48851 3.56085 7.27709 2.97887C8.06567 2.39689 9.02004 2.08301 10.0001 2.08331ZM6.66679 6.66665C6.66679 7.5507 7.01798 8.39855 7.6431 9.02367C8.26822 9.64879 9.11607 9.99998 10.0001 9.99998C10.8842 9.99998 11.732 9.64879 12.3571 9.02367C12.9823 8.39855 13.3335 7.5507 13.3335 6.66665C13.3335 5.78259 12.9823 4.93474 12.3571 4.30962C11.732 3.6845 10.8842 3.33331 10.0001 3.33331C9.11607 3.33331 8.26822 3.6845 7.6431 4.30962C7.01798 4.93474 6.66679 5.78259 6.66679 6.66665Z" fill="current"/>
</g>
</svg>
